<svg xmlns="http://www.w3.org/2000/svg" viewBox="0 0 289.75 328.83"><defs><style>.cls-1{fill:#fff;}.cls-2{fill:#293549;}.cls-3{fill:#3bab5e;}.cls-4{fill:#f7f8f9;}.cls-5{fill:#424143;opacity:0.4;}.cls-5,.cls-6{isolation:isolate;}.cls-6{fill:#221f1f;opacity:0.1;}</style></defs><title>agencia</title><g id="Capa_2" data-name="Capa 2"><g id="Pagina_Inicial_Movil" data-name="Pagina Inicial Movil"><path class="cls-1" d="M0,88.34A13.88,13.88,0,0,1,6.28,77.48l132.31-76a14.08,14.08,0,0,1,12.57,0l132.31,76a13.88,13.88,0,0,1,6.28,10.86v152a13.88,13.88,0,0,1-6.28,10.86l-132.31,76a14.08,14.08,0,0,1-12.57,0l-132.31-76A13.88,13.88,0,0,1,0,240.33Z"/><path class="cls-2" d="M69.13,55.11a8.87,8.87,0,0,1,8.93-8.88H212A8.87,8.87,0,0,1,221,55.11V273.72a8.87,8.87,0,0,1-8.93,8.88h-134a8.87,8.87,0,0,1-8.93-8.88Z"/><rect class="cls-3" x="78.06" y="77.15" width="133.96" height="166.97"/><path class="cls-4" d="M150.5,60.7H139.42a.44.44,0,0,1-.5-.49.53.53,0,0,1,.5-.49H150.5a.49.49,0,1,1,0,1Z"/><path class="cls-4" d="M154.14,63.17H135.94a.53.53,0,0,1-.5-.49.44.44,0,0,1,.5-.49h18.19a.53.53,0,0,1,.5.49A.44.44,0,0,1,154.14,63.17Z"/><path class="cls-4" d="M150.5,65.47H139.42a.49.49,0,1,1,0-1H150.5a.49.49,0,1,1,0,1Z"/><path class="cls-4" d="M145,274.55a9.61,9.61,0,0,1-9.59-9.71A9.47,9.47,0,0,1,145,255.3a9.57,9.57,0,0,1,9.59,9.54A9.71,9.71,0,0,1,145,274.55Zm0-18.42a8.72,8.72,0,1,0,8.77,8.72A8.8,8.8,0,0,0,145,256.12Z"/><rect class="cls-4" x="89.14" y="86.03" width="111.63" height="31.42"/><rect class="cls-5" x="128.34" y="127.81" width="72.6" height="31.42"/><rect class="cls-5" x="89.14" y="127.49" width="31.92" height="31.75"/><rect class="cls-5" x="128.34" y="166.97" width="72.6" height="31.42"/><rect class="cls-5" x="89.14" y="166.64" width="31.92" height="31.75"/><rect class="cls-5" x="128.34" y="205.95" width="72.6" height="31.42"/><rect class="cls-5" x="89.14" y="205.79" width="31.92" height="31.75"/><path class="cls-6" d="M283.47,77.48,151,1.48A11.84,11.84,0,0,0,145,0V328.83a11.84,11.84,0,0,0,6-1.48l132.31-76a13.88,13.88,0,0,0,6.28-10.86V88.34C289.75,84.39,286.94,79.45,283.47,77.48Z"/></g></g></svg>