<svg xmlns="http://www.w3.org/2000/svg" viewBox="0 0 208.24 39.59"><defs><style>.cls-1{fill:#d8b57d;}.cls-2{fill:#ed3535;}.cls-3{fill:#fff;}</style></defs><title>Recurso 3</title><g id="Capa_2" data-name="Capa 2"><g id="Capa_1-2" data-name="Capa 1"><path class="cls-1" d="M13.07,24.12c-2-1.86-2.31-4.77-3.69-6.17-1.16-1.17-3-.61-3.21.42C5.83,20,8,24.65,9,26.15c.27.37-.21,1.07-1,.47S3.87,20,5.15,16c.63-2-1-4-3.08-3s-3.29,9.66-.2,14.71c2.61,4.26,8.11,7.07,9.07,7.56.65.33.91,2.23,1,3.41,0,.56.24.94,1,.93h5c1.25,0,1.29-.6,1.29-.89C19.22,31.18,19.73,30.22,13.07,24.12Z"/><path class="cls-1" d="M32.24,24.12c2-1.86,2.31-4.77,3.69-6.17,1.16-1.17,3-.61,3.21.42.34,1.59-1.8,6.28-2.87,7.78-.27.37.21,1.07,1,.47S41.44,20,40.15,16c-.63-2,1-4,3.08-3s3.29,9.66.2,14.71c-2.61,4.26-8.11,7.07-9.07,7.56-.65.33-.91,2.23-1,3.41,0,.56-.24.94-1,.93h-5c-1.25,0-1.29-.6-1.29-.89C26.08,31.18,25.57,30.22,32.24,24.12Z"/><path class="cls-2" d="M29.14.37a10.74,10.74,0,0,0-6.58,2.14A10.74,10.74,0,0,0,16,.37c-5.21,0-9.44,3.38-9.44,7.54a6.53,6.53,0,0,0,1.72,4.34A7.94,7.94,0,0,0,9.8,13.72l9.79,7.84c1,.78,2,1.57,2.94,1.57h0c1,0,2-.78,2.94-1.57l9.79-7.84a7.94,7.94,0,0,0,1.54-1.46,6.54,6.54,0,0,0,1.72-4.34C38.58,3.75,34.35.37,29.14.37Z"/><path class="cls-3" d="M51.34,17.18V0h3.49V17.18Z"/><path class="cls-3" d="M69.51,17.18H66.2V10.83A9.75,9.75,0,0,0,66,8.22a1.83,1.83,0,0,0-.69-.92A2,2,0,0,0,64.15,7a2.67,2.67,0,0,0-1.54.47,2.36,2.36,0,0,0-.94,1.24,10.68,10.68,0,0,0-.25,2.86v5.64H58.1V4.73h3.08V6.56a5.15,5.15,0,0,1,6.13-1.72,3.36,3.36,0,0,1,1.37,1,3.62,3.62,0,0,1,.65,1.38,10.21,10.21,0,0,1,.18,2.21Z"/><path class="cls-3" d="M71.7,13.63l3.32-.5a2.42,2.42,0,0,0,.86,1.46,2.92,2.92,0,0,0,1.81.5,3.29,3.29,0,0,0,1.93-.47,1,1,0,0,0,.44-.88.87.87,0,0,0-.24-.62,2.65,2.65,0,0,0-1.11-.43,17.93,17.93,0,0,1-5.08-1.61,3.2,3.2,0,0,1-1.48-2.8,3.44,3.44,0,0,1,1.28-2.72,6,6,0,0,1,4-1.1,7,7,0,0,1,3.82.83A4.26,4.26,0,0,1,83,7.75l-3.12.57a1.92,1.92,0,0,0-.76-1.11,2.79,2.79,0,0,0-1.6-.39,3.62,3.62,0,0,0-1.87.36.78.78,0,0,0-.38.67.73.73,0,0,0,.33.6,12.47,12.47,0,0,0,3.09.93,9.23,9.23,0,0,1,3.69,1.46,3,3,0,0,1,1,2.45A3.75,3.75,0,0,1,82,16.23a6.39,6.39,0,0,1-4.25,1.23,7,7,0,0,1-4-1A4.75,4.75,0,0,1,71.7,13.63Z"/><path class="cls-3" d="M94.53,17.18V15.32a4.81,4.81,0,0,1-1.8,1.57,5.06,5.06,0,0,1-2.35.57,4.61,4.61,0,0,1-2.26-.55,3.26,3.26,0,0,1-1.45-1.55,6.86,6.86,0,0,1-.45-2.75V4.73h3.31v5.72a15.75,15.75,0,0,0,.18,3.22,1.76,1.76,0,0,0,.67.94,2.05,2.05,0,0,0,1.23.35,2.62,2.62,0,0,0,1.52-.46A2.36,2.36,0,0,0,94,13.34,13.24,13.24,0,0,0,94.3,10V4.73h3.31V17.18Z"/><path class="cls-3" d="M104.21,17.18H100.9V4.73H104V6.5a5.33,5.33,0,0,1,1.42-1.65,2.63,2.63,0,0,1,1.43-.4,4.22,4.22,0,0,1,2.18.62l-1,2.87a2.92,2.92,0,0,0-1.56-.54,1.84,1.84,0,0,0-1.18.38,2.6,2.6,0,0,0-.76,1.38,19.45,19.45,0,0,0-.28,4.17Z"/><path class="cls-3" d="M117.68,13.22l3.3.55a5.38,5.38,0,0,1-2,2.75,5.93,5.93,0,0,1-3.44.94,5.61,5.61,0,0,1-4.83-2.12,7.1,7.1,0,0,1-1.24-4.29,6.85,6.85,0,0,1,1.63-4.85,5.37,5.37,0,0,1,4.11-1.75,5.57,5.57,0,0,1,4.41,1.83q1.62,1.83,1.54,5.62h-8.3a3.32,3.32,0,0,0,.8,2.28,2.51,2.51,0,0,0,1.91.81,2,2,0,0,0,1.31-.42A2.6,2.6,0,0,0,117.68,13.22Zm.19-3.33a3.16,3.16,0,0,0-.74-2.17,2.4,2.4,0,0,0-3.51,0,3,3,0,0,0-.7,2.13Z"/><path class="cls-3" d="M135.24,17.18h-3.31V10.83a9.76,9.76,0,0,0-.21-2.61A1.83,1.83,0,0,0,131,7.3,2,2,0,0,0,129.88,7a2.67,2.67,0,0,0-1.54.47,2.36,2.36,0,0,0-.94,1.24,10.67,10.67,0,0,0-.25,2.86v5.64h-3.31V4.73h3.08V6.56A5.15,5.15,0,0,1,133,4.85a3.35,3.35,0,0,1,1.37,1,3.62,3.62,0,0,1,.65,1.38,10.21,10.21,0,0,1,.18,2.21Z"/><path class="cls-3" d="M149.51,8.41,146.25,9a2.35,2.35,0,0,0-.75-1.46A2.27,2.27,0,0,0,144,7a2.48,2.48,0,0,0-2,.85,4.33,4.33,0,0,0-.74,2.84,5,5,0,0,0,.75,3.13,2.46,2.46,0,0,0,2,.91,2.24,2.24,0,0,0,1.54-.53,3.2,3.2,0,0,0,.85-1.83l3.25.55a5.73,5.73,0,0,1-1.94,3.36,6,6,0,0,1-3.85,1.14,5.75,5.75,0,0,1-4.38-1.72A6.66,6.66,0,0,1,137.87,11a6.67,6.67,0,0,1,1.64-4.8,5.84,5.84,0,0,1,4.43-1.72,6.07,6.07,0,0,1,3.64,1A5.42,5.42,0,0,1,149.51,8.41Z"/><path class="cls-3" d="M159.27,13.22l3.3.55a5.38,5.38,0,0,1-2,2.75,5.93,5.93,0,0,1-3.44.94,5.61,5.61,0,0,1-4.83-2.12,7.1,7.1,0,0,1-1.24-4.29,6.85,6.85,0,0,1,1.63-4.85,5.37,5.37,0,0,1,4.11-1.75,5.57,5.57,0,0,1,4.41,1.83q1.62,1.83,1.54,5.62h-8.3a3.32,3.32,0,0,0,.8,2.28,2.51,2.51,0,0,0,1.91.81,2,2,0,0,0,1.31-.42A2.6,2.6,0,0,0,159.27,13.22Zm.19-3.33a3.16,3.16,0,0,0-.74-2.17,2.4,2.4,0,0,0-3.51,0,3,3,0,0,0-.7,2.13Z"/><path class="cls-3" d="M67,39H63.23l-1.51-3.9H54.81L53.39,39h-3.7L56.42,21.8H60.1Zm-6.42-6.8-2.38-6.38-2.33,6.38Z"/><path class="cls-3" d="M80.33,39H77.25V37.15a5,5,0,0,1-1.81,1.59,4.66,4.66,0,0,1-2.1.52,4.78,4.78,0,0,1-3.69-1.73,7,7,0,0,1-1.54-4.82,6.92,6.92,0,0,1,1.5-4.81,4.89,4.89,0,0,1,3.78-1.65A4.7,4.7,0,0,1,77,28V21.8h3.31Zm-8.84-6.49A5.67,5.67,0,0,0,72,35.37a2.51,2.51,0,0,0,2.24,1.29,2.44,2.44,0,0,0,1.94-1A4.44,4.44,0,0,0,77,32.8a4.86,4.86,0,0,0-.78-3.09,2.47,2.47,0,0,0-2-.94,2.49,2.49,0,0,0-2,.93A4.19,4.19,0,0,0,71.49,32.49Z"/><path class="cls-3" d="M83.35,26.53H86.4v1.7a4.92,4.92,0,0,1,3.9-2,4.22,4.22,0,0,1,2.09.49,3.8,3.8,0,0,1,1.45,1.49,5.77,5.77,0,0,1,1.78-1.49,4.39,4.39,0,0,1,2-.49,4.56,4.56,0,0,1,2.33.56,3.42,3.42,0,0,1,1.43,1.63,7.06,7.06,0,0,1,.34,2.58v8H98.44V31.87a5.26,5.26,0,0,0-.34-2.39,1.57,1.57,0,0,0-1.41-.7,2.26,2.26,0,0,0-1.31.42,2.34,2.34,0,0,0-.88,1.24A8.85,8.85,0,0,0,94.22,33v6H90.91V32.16a9.44,9.44,0,0,0-.18-2.34,1.5,1.5,0,0,0-.55-.79,1.74,1.74,0,0,0-1-.26,2.42,2.42,0,0,0-1.38.41,2.25,2.25,0,0,0-.88,1.18,8.76,8.76,0,0,0-.26,2.57v6H83.35Z"/><path class="cls-3" d="M105.06,24.85v-3h3.31v3Zm0,14.13V26.53h3.31V39Z"/><path class="cls-3" d="M123.15,39h-3.31V32.63a9.76,9.76,0,0,0-.21-2.61,1.83,1.83,0,0,0-.69-.92,2,2,0,0,0-1.15-.33,2.67,2.67,0,0,0-1.54.47,2.36,2.36,0,0,0-.94,1.24,10.67,10.67,0,0,0-.25,2.86V39h-3.31V26.53h3.08v1.83a5.15,5.15,0,0,1,6.13-1.72,3.35,3.35,0,0,1,1.37,1A3.62,3.62,0,0,1,123,29a10.21,10.21,0,0,1,.18,2.21Z"/><path class="cls-3" d="M126.51,24.85v-3h3.31v3Zm0,14.13V26.53h3.31V39Z"/><path class="cls-3" d="M132,35.43l3.32-.5a2.41,2.41,0,0,0,.86,1.46,2.92,2.92,0,0,0,1.81.5,3.29,3.29,0,0,0,1.93-.47,1,1,0,0,0,.44-.88.87.87,0,0,0-.24-.62,2.65,2.65,0,0,0-1.11-.43A17.94,17.94,0,0,1,134,32.87a3.2,3.2,0,0,1-1.49-2.8,3.44,3.44,0,0,1,1.28-2.72,6,6,0,0,1,4-1.1,7,7,0,0,1,3.82.83,4.26,4.26,0,0,1,1.72,2.46l-3.12.57a1.92,1.92,0,0,0-.76-1.11,2.79,2.79,0,0,0-1.6-.39A3.62,3.62,0,0,0,136,29a.78.78,0,0,0-.38.67.73.73,0,0,0,.33.6,12.45,12.45,0,0,0,3.09.93,9.24,9.24,0,0,1,3.69,1.46,3,3,0,0,1,1,2.45A3.75,3.75,0,0,1,142.3,38,6.39,6.39,0,0,1,138,39.26a7,7,0,0,1-4-1A4.75,4.75,0,0,1,132,35.43Z"/><path class="cls-3" d="M152.38,26.53v2.63h-2.26v5a12.24,12.24,0,0,0,.07,1.78.72.72,0,0,0,.29.42.94.94,0,0,0,.56.16,4.3,4.3,0,0,0,1.33-.32l.28,2.55a6.62,6.62,0,0,1-2.62.49,4.17,4.17,0,0,1-1.62-.3,2.36,2.36,0,0,1-1.05-.77,3,3,0,0,1-.46-1.28,15.77,15.77,0,0,1-.11-2.32V29.16h-1.52V26.53h1.52V24.06l3.32-1.92v4.39Z"/><path class="cls-3" d="M157.84,39h-3.31V26.53h3.08V28.3A5.33,5.33,0,0,1,159,26.65a2.63,2.63,0,0,1,1.43-.4,4.22,4.22,0,0,1,2.18.62l-1,2.87a2.92,2.92,0,0,0-1.56-.54,1.84,1.84,0,0,0-1.18.38,2.6,2.6,0,0,0-.76,1.38,19.45,19.45,0,0,0-.28,4.17Z"/><path class="cls-3" d="M166.54,30.33l-3-.54a4.65,4.65,0,0,1,1.74-2.67,6.41,6.41,0,0,1,3.68-.87,8,8,0,0,1,3.3.52,3.29,3.29,0,0,1,1.53,1.32,6.77,6.77,0,0,1,.44,2.95l0,3.84a13.23,13.23,0,0,0,.16,2.42,7,7,0,0,0,.59,1.67h-3.28q-.13-.33-.32-1-.08-.29-.12-.39a6,6,0,0,1-1.82,1.23,5.23,5.23,0,0,1-2.06.41,4.28,4.28,0,0,1-3-1,3.46,3.46,0,0,1-1.11-2.64,3.52,3.52,0,0,1,.51-1.88,3.31,3.31,0,0,1,1.42-1.27,11.16,11.16,0,0,1,2.63-.77,18.13,18.13,0,0,0,3.22-.81v-.33a1.7,1.7,0,0,0-.47-1.35,2.83,2.83,0,0,0-1.78-.4,2.38,2.38,0,0,0-1.38.35A2.41,2.41,0,0,0,166.54,30.33ZM171,33a20.72,20.72,0,0,1-2,.5,6.1,6.1,0,0,0-1.8.57,1.37,1.37,0,0,0-.65,1.16,1.61,1.61,0,0,0,.52,1.2,1.82,1.82,0,0,0,1.32.5,2.88,2.88,0,0,0,1.71-.59,2.06,2.06,0,0,0,.79-1.09,6.44,6.44,0,0,0,.13-1.61Z"/><path class="cls-3" d="M183.23,26.53v2.63H181v5A12.24,12.24,0,0,0,181,36a.72.72,0,0,0,.29.42.94.94,0,0,0,.56.16,4.3,4.3,0,0,0,1.33-.32l.28,2.55a6.62,6.62,0,0,1-2.62.49,4.17,4.17,0,0,1-1.62-.3,2.36,2.36,0,0,1-1.05-.77,3,3,0,0,1-.46-1.28,15.77,15.77,0,0,1-.11-2.32V29.16h-1.52V26.53h1.52V24.06L181,22.14v4.39Z"/><path class="cls-3" d="M184.76,32.58a6.7,6.7,0,0,1,.81-3.18,5.56,5.56,0,0,1,2.3-2.34,6.87,6.87,0,0,1,3.33-.81,6.24,6.24,0,0,1,6.47,6.47,6.39,6.39,0,0,1-1.83,4.68,6.21,6.21,0,0,1-4.61,1.86,7.3,7.3,0,0,1-3.28-.77,5.32,5.32,0,0,1-2.37-2.27A7.52,7.52,0,0,1,184.76,32.58Zm3.39.18a4.11,4.11,0,0,0,.88,2.84,2.9,2.9,0,0,0,4.36,0,4.17,4.17,0,0,0,.88-2.86,4.09,4.09,0,0,0-.88-2.81,2.9,2.9,0,0,0-4.36,0A4.11,4.11,0,0,0,188.16,32.76Z"/><path class="cls-3" d="M203.44,39h-3.31V26.53h3.08V28.3a5.33,5.33,0,0,1,1.42-1.65,2.63,2.63,0,0,1,1.43-.4,4.22,4.22,0,0,1,2.18.62l-1,2.87a2.92,2.92,0,0,0-1.56-.54,1.84,1.84,0,0,0-1.18.38,2.6,2.6,0,0,0-.76,1.38,19.45,19.45,0,0,0-.28,4.17Z"/></g></g></svg>