<svg xmlns="http://www.w3.org/2000/svg" viewBox="0 0 349.6 318.78"><defs><style>.cls-1{fill:#d1ecfb;}.cls-2{fill:#57d357;}.cls-3{fill:#103754;}.cls-4{fill:none;}.cls-5{fill:#c1e2de;}.cls-6{fill:#0e303f;}.cls-7{fill:#fff;}.cls-8{fill:#fd6120;}.cls-9{fill:#b7c9cb;}</style></defs><title>mundo</title><g id="Capa_2" data-name="Capa 2"><g id="Pagina_Inicial_Escritorio" data-name="Pagina Inicial Escritorio"><g id="Porque_somos_tu_mejor_elección" data-name="Porque somos tu mejor elección"><path class="cls-1" d="M190.1,0C102.21,0,30.71,71.5,30.71,159.39s71.5,159.39,159.39,159.39S349.6,247.39,349.6,159.5,278,0,190.1,0Z"/><path class="cls-2" d="M341.12,202.82c-2.06,0-4.81,1-4.81,1.72s-2.86,1.95-3.9,2.41-2.75,3.32-3.21,4.24-2.75.69-3.55,1S323,214,323,214.85s-.46.69-1-.23l-1.15,1.15-1.37,1.49c-.8,2.41-3.32,5.5-4.24,5.73s-1,4.47-1,6.19a8.14,8.14,0,0,0,1.49,4.7v1.37l.23,2.75a4.81,4.81,0,0,0,1.6,4.35c.46.34,4.35-.69,5.84-1l2.06-.8a162.25,162.25,0,0,0,16.39-38A1.15,1.15,0,0,1,341.12,202.82Z"/><path class="cls-2" d="M77.92,206.83c-.23.46,2.64,3.32,3.67,4.35a29.8,29.8,0,0,1,3.9,7.33,13.18,13.18,0,0,1,0,4.7,8,8,0,0,0,.57,2.41c.11.57-.92,5.16-.57,7.1s-2.18,7.68-2.06,10.66,1.37,6.65,1.83,6.42.69,2.64-.11,3-1.95,2.64-1.37,2.75,0,2.41.11,3.32.92,7,1,8.48,2.29,5.16,2.75,6.42.92,3.55,1,3.9l.34.8a10.88,10.88,0,0,1,2.29,1c.46.34,3.9.11,5-.11s.11-1.26-.34-1.72-.92-3.21-1.49-3.44-.8-3.67-.34-4.47,2.52-1.95,2.75-2.64.23-3.55-.23-4,.11-4-.23-5.84,3.09-3.44,3.32-4.81,4-3,4.81-3.67,1.6-4.81,1.15-5.61,1.37-1.6,2.18-1.6A11.46,11.46,0,0,0,110,241c.23,0,1.26-1.83,1.72-2.18s1.6-4.7,2.52-5.39a7.79,7.79,0,0,0,1.72-4,10.66,10.66,0,0,1,1.95-3.67c.46-.69,4-2.29,4.7-2.52s1.6-6,1.83-8a46.2,46.2,0,0,1,1.37-5.5c0-.69,1.15-1.26,1.37-1.49s1-2.86,1.6-3.44,2.52-3.09,2.52-3.67a18.22,18.22,0,0,1,.69-3.21v-3.55c-.57-1.72-2.52-3.9-3-3.32s-2.64-1.49-3.78-1.95a18.68,18.68,0,0,0-4.58-.69c-.69,0-3.09-1.95-4.24-2.29s-3.9-.8-4.35-1.15-1.15-4.47-3.44-5.84-6.19-4.58-6.65-5.73-4.7-3.55-6.07-4.35-3.32-.92-3.55-.57-1.95-2.29-2.75-3-3.44-1.26-3.55-.69-1.83.23-2.18-.23-1.72.23-2.41.46-2.75,3.44-3.78,4.24-2.18-.69-2.86-1a6.88,6.88,0,0,0-3.78,1c-.69.46-2.18-3.44-1.83-5.27s-1.6-5.39-3.21-5.5-1.95-3.9-1.72-5.27-2.75-2.29-3.55-2.41-2.64,1.83-3,2.86-7.33-1.26-6.53-5.5,4.13-8.59,4.93-9.05,5.27-.69,6.3-.11a1.83,1.83,0,0,0,2.06-.23,14,14,0,0,1,4.93.46c1,.46,2.64,4.7,3.78,5.16s1.49-2.75,1.72-3.55a10.31,10.31,0,0,0-.8-3.32c-.23-.57,1.83-5.73,3.55-6.53s3.55-3.78,3.32-4.24,1.37-.92,1.72-1.15,0-4.35.57-5.27a19.71,19.71,0,0,1,4.93-3.21c1-.46,1.72-3,1.37-3.55s2.64-3,4.24-3.55,2.86.92,2.52,1,2.41-1.26,3.32-1.83,0-2.64-.69-3.21-.23-2.75.57-3,1.49-2.18,1.26-2.52,3.44.34,4.81-.69.34,2.41-.57,3.9a1.6,1.6,0,0,0,1.37,2.52,1.49,1.49,0,0,1,1.49,1.15c.11.34,1.49-.46,2.41,0s1.49-1.26,1.49-2.06-2.18-2.29-2.52-3.32a52.71,52.71,0,0,1-.46-7.45c0-1-1.49-2.86-1.95-2.52s-1.37-2.86-2.18-3.55a4,4,0,0,1-.92-2.75c0-.46-2.52-3.21-3.21-4.47s-1.49-1-1.6-.46-1.83.69-2.64.57-1.37-3-1.37-4-3.32-1.26-3.9-2.18-2.75-.46-3.09-1a3.67,3.67,0,0,0-2.64-.92c-.34.23-.23,8.14-.57,10.2s-2.18,4-2.86,3.9-.23,1.49.11,1.37-1.26,2.29-1.49,3.9-1.83,0-2.06-1.49-1.83-3.44-2.18-3-1.37-.57-1.83-.23-3.44-1.72-4.7-2.41-1.83-4.35-2.64-4.7S67,80,67,79.41s2.41-2.75,3.09-3.55a56.78,56.78,0,0,1,4.35-5c1-.8,1.83-2.64,1.6-3s4.47-1.83,5.73-2.18,2.29-3.9,2.52-4.93A4.24,4.24,0,0,0,83,57.63c-.57-.23,1.72-.34,2.52.11s3.09-.69,4.13-.23L93.84,60l-.23,2.52L93,66.92c-3.67,1.49-4.7,4.13-3.44,4s7.1,2.52,8.71,3.67,2.18-1.72,2.64-2.64a7.68,7.68,0,0,0,0-4.24c-.46-.57,1.83-.34,2.52.23s1.37-.57,1.83-.92.69-2.64,1-3.09-1-.92-1.15-1.6-2.64-1.72-3.44-2.18a2.06,2.06,0,0,1-.57-2.52c.34-.34-.23-2.64-.69-3.32s-3.09-1.37-4-1.37-1.83-2.06-2.41-2.41a16.73,16.73,0,0,0-4.93-.46c-.8.23-2.41-2.52-3.9-1.6s-3-.92-3.67-1.37-4.13,3.32-4,5.84,1.26,5,1.83,5.16-.11,2.41-.69,3.09-2.06-.69-1.49-1.26-1.49-3.32-2.18-4.35-2.29-1.49-3.44-1.95l-2.06,2.29A5.85,5.85,0,0,1,69.78,59c-.46,1.6-1.83,1.83-1.83,1.15a2,2,0,0,0-1.49-.57,158.47,158.47,0,0,0-35.87,83.3,7.56,7.56,0,0,1,1.83,2.64c.46,1.37,2.86,2.29,3.32,2.64s.57-2.64.23-3.44.57-1.15.57-.69,2.29,3.09,3,4.13,1.49,7,2.29,8.25,7.68,4,10,4.47a12.61,12.61,0,0,1,5.5,3.67c.46.69,3.44,1,4,1.37a31.81,31.81,0,0,1,2.75,2.75,4,4,0,0,1,1.15,1.95c0,.34,3.9,1.83,4.93,2.86a2.41,2.41,0,0,0,2.86.34c.23-.46,1,2.06,1.49,3s.46,3,.11,3.32-.8,4.24-1.49,5-2.06,6.53-1.72,7.68a8.48,8.48,0,0,0,3,3.78.92.92,0,0,1-.11,1.6c-.57,0-.34,5.61,1.15,6.42S78.15,206.48,77.92,206.83Z"/><path class="cls-3" d="M96.6,109.77"/><path class="cls-2" d="M85.71,42.51c1.83-.34,5-.92,5.27-1.37A4.81,4.81,0,0,0,90.87,39h.92c.69,0,1.95-3.9,2.64-4.81s5-2.29,6.07-2.86,3.32-2.75,4.13-3.09,2.18-2.29,1.95-2.64,3-2.29,4.13-2.75,1.83-1.83,1.37-1.95-6.88,3.44-12.95,6.88a179.33,179.33,0,0,0-19.71,15.7Z"/><path class="cls-2" d="M201.1,241c1.95-1.15,5.5-6.3,6.65-7.33s1.95-4.93,2.18-5.73a6.53,6.53,0,0,1,2.52-2.41c.57-.23,2.64-8.71,4.47-10.66s3.9-10.89,3.67-14.21,1.15-9.4,1.6-10.89a16.73,16.73,0,0,1,3.32-4.7,96.15,96.15,0,0,0,6.42-9.28c1.37-2.29,2.75-7.33,2.41-8.59s-3.32-2.06-3.9-1.37-3.44,1-4.35,1-3-4.93-4.24-5.84-2.41-6.65-3.21-7.68a53.14,53.14,0,0,0-3.44-4.35c-.69-.57-.8-3.55-.92-4.35s1.26.46,1.49,1.72,3.55,6,4.58,7.56,3.78,6.76,4.47,8.36,6.76.8,8.82-.11,4.47-2.52,4.58-3.09,3.21-1.95,4.13-2.64,1.6-4.35,2.18-4.93-.46-4.13-1.15-5.16-3.78-1.83-4.47-1.49-1.95-2.29-2.52-3.32-2.86-2.29-3.09-3a2.52,2.52,0,0,1,1-2.06c.34-.23,4.81,2.86,6.07,4.47a25.22,25.22,0,0,1,3,4.93c.23.57,3.78.69,4.58.11a1.26,1.26,0,0,1,1.78.1,1.25,1.25,0,0,1,.17.24h1l3.9-.57a7.56,7.56,0,0,1,2.29,4.13,4.47,4.47,0,0,0,1.83,2.18c.69.11,1.26,2.64,1.49,3.32a55.34,55.34,0,0,1,2.86,6,33.35,33.35,0,0,0,2.75,5.5,12.61,12.61,0,0,1,.8,3.9,2.64,2.64,0,0,0,2.29,1.83c.8-.11,2.64-5.61,3.09-7.68s1.83-3.78,2.18-3.78.69-1.15.69-1.6,2.18-.34,2.41-.92.8-4.24,1.6-4.81a34.49,34.49,0,0,1,4.58-2.75c.92-.34,3.55,1.83,4.13,2.86a8.59,8.59,0,0,1,.8,4c-.23.34,1.26,2.64,2.64,2.64s1.72,1.72,1.83,2.29,1.83,2.41,2.18,3.21a7.56,7.56,0,0,1,0,3.55,18.22,18.22,0,0,0,.11,4.24c.23.8,4.35,5,6,6.3s2.29-2.64,1.49-3.78-3.55-4-4.13-4.81-.69-4.24-.46-5.16,2.41.46,3.21,1.15a6.65,6.65,0,0,1,2.06,2.64c0,.46,5.61-2.64,5.84-6s2.06-7.22,2.18-8.14a2.41,2.41,0,0,0-1-2.18c-.46-.11.8-2.52,2.41-2.52s5.27-4.13,6.19-5.84a13.29,13.29,0,0,1,2.86-3.21,24.53,24.53,0,0,0,1.6-5.73c.23-1.6-.92-4.13-1-5a13.63,13.63,0,0,0-1.83-3.32,7,7,0,0,1-.46-3.32c.11-.34,1.6-.8,1.72-1.26s1.72-2.06,1.6-2.86.92,1,1.72,1.6,1.49,4.7,2.41,5,4.58-4.24,4.13-7.33,1-7,1.95-7.33,2.41-2.75,3.55-4.47A159.5,159.5,0,0,0,298,46.41h-.57l-1.37-.23c-2.29-.46-3.55-2.86-3.21-3.44a1.49,1.49,0,0,0,0-1c-1.26-1.15-2.52-2.29-3.9-3.32h-2.86a12.6,12.6,0,0,1-4.81-1.49c-.46-.46-2.29.46-2.41,1.49s-3.21,1.37-3.44,2.18a1.83,1.83,0,0,1-2.18.46c-.23-.46-3.21,1-4.58,1.15a20.86,20.86,0,0,0-4.7,1.6,7.1,7.1,0,0,0-2.41,2.41A7.45,7.45,0,0,1,259,48c-.57.23-.46,2.86.23,3.32s-1.37-.34-2.41-.8-1.95,1.15-2.29,1.72-1.15-.34-1.15-1.15-2.41-1.37-2.64-.8-1.95-.23-2.64-.57-3.67,2.75-4.81,3.9-6.42,1.95-7.33,1.6-1.95,2.29-1.15,2.52h-3.21A28,28,0,0,0,224,60.62a1.26,1.26,0,0,1-2.06-.8c0-.69-1.83-1.26-2.29-1.37s-1.6,3.55-2.52,4.24-2.06-2.86-4.35-3.55-5.73-2.75-6.76-3-3-2.29-3.55-3-3.44-1-4.35-1-3.9,1.72-4.7,2.29-1.95.46-2.41.8-3.78,3.44-5,4.47-3.55,5.39-4.24,6.53a2.75,2.75,0,0,1-2.18,1.26,2.18,2.18,0,0,0-.8,1.6c0,.46-3.78,2.41-4.24,4.13s.46,5.73.46,7.1,1.37,4.24,2.41,4.24.57,2.41.23,3.09.69,1.37.57,1.95-2.64,1.37-3.44,1.6a5.73,5.73,0,0,0-2.29,2.86c-.11.57-2.64,1-3.55,1.83a10.43,10.43,0,0,1,.69-1.83,3.09,3.09,0,0,0-.57-2.86c-.34-.34-.57-4.93-1.26-6a25.68,25.68,0,0,0-2.64-3c-.34-.34.23-1.49.57-2.06s-2.18-.8-2.75-.46-1,4.93-1.26,6.19a3.9,3.9,0,0,0,1.6,3.21c.46.11.23,2.29-.57,2.41s-1.6,3.32-1.15,4.13-.57,2.18-1,2.52,3.21.11,4.93.11a4.47,4.47,0,0,1,2.86.8c-.11.11-3.21.57-3.78,1.26s-2.64,2.06-3,2.64.69,1.72,1.49,1.72,1.83,3,2.52,3.55a2.52,2.52,0,0,1,.11,2.64c-.23.46-4.47-.23-6,.11s-3.55,3.67-3.67,4.93a32.54,32.54,0,0,0,.46,5.84c.11,1,3.44,1.6,4.13,2.06s3.78,0,4.47.34,2.75-3.21,3.21-4.81,3.78-4.58,4.47-5.73,4.24-.92,5.16-1.49.46,2.75.8,4.58,3.9,1.6,3.32-.11.34-2.41.46-1.83,3.44,1.95,4.13,2.86.46,3-.23,3-.8,2.18,0,2.52,1.83-2.52,2.64-3,1.49-2.18,1.15-2.29.69-1.72,1.15-1.15a20.44,20.44,0,0,0-3.21-4.81c-1.49-1.49-.34-.8,2.18,1.37l1.83,2.52c.34.46.8,1.83,1.15,2.29l.46.69a18.57,18.57,0,0,1,.69,4,2.64,2.64,0,0,0,2.29,1.83,1.49,1.49,0,0,1,1.37.46c-.11.11.57,1.72,1.37,1.72s1.26-2.18.34-2.18-.69-3.21-.8-4.7.57-2.52.92-2.52,0,2.86,0,3.55a11.12,11.12,0,0,0,.8,2.86l.92.69,1.95,1.49c2.86-.8,6.76-.11,6.53.46s2.06.69,2.18-.23.23.11.23.69-1.83,3.21-2.18,4.35-7,.34-9.85.11-7.1.69-7.33,1.6-4.7-1.95-6.76-2.75-3.67-3.9-4-4.35.34-1.37.11-2.06-4.81-.69-6.19-.23-8.36,1.26-10,1.95-4.13,0-4.93-.11-2.64,2.18-3.55,2.52-2.06,3.67-2.64,7.22L154,137.62l-.8,1.6c-2.29,1.72-4.81,7.56-5.61,8.82s-1.37,9.63-1.37,12.49,2.41,8.82,3.21,10.54,4.93,5.27,6.42,6.19,6.07,1,7.56,1a4.47,4.47,0,0,0,3.78-3.21l2.18.23h1c0,1.26,3.32,2.18,4.13,2.64a6.3,6.3,0,0,0,3.55-.11c.57-.11,1.37,5.61.92,7.33s1.15,7.56,1.6,9.4,2.52,6.65,2.64,8.36-1.15,7.56-1.37,9.63,2.52,7.68,3.21,9.63a35.52,35.52,0,0,1,1.26,7.1c0,.92,3,6.88,3.67,9.28S199,242.12,201.1,241Z"/><path class="cls-2" d="M332.41,168.56c.11.46,2.06-1,3.21-1.26s1.83-3.21.92-3.44-1.95-2.64-2.64-2.86-1.83,1-1.83,1.95S330,164.2,329.55,165s-.34,1.26,0,1.26A10.51,10.51,0,0,1,332.41,168.56Z"/><path class="cls-2" d="M330.12,185.4c.57-.23,0-3.21-1.26-3.44s-4.47,4-3.9,6.42,1.26,2.29,1.6,1.72,2.29.34,2.86.46.57-.34,0-1.26S329.55,185.63,330.12,185.4Z"/><path class="cls-2" d="M323.59,182.42c.11-1,.34-4.47.46-5.16s-1.83-2.64-2.86-3-4.13,6.53-6.42,7.79-3.09,5.5-2.52,6.42,5.39,1.49,6.19,2.18,1.72-.11,2.29-.23.34-.46.11-.57,1.6-2.06,1.95-3.32A31.62,31.62,0,0,0,323.59,182.42Z"/><path class="cls-2" d="M310.53,194c-1.72-.69-3.9.34-4,1s6.88,1.83,9.28,2.41,3.78.8,3.32.46Z"/><path class="cls-2" d="M325.08,147.59c.57-.8-.8-4.47-1.49-3.67s-.11,3,0,3.78S324.51,148.39,325.08,147.59Z"/><path class="cls-2" d="M329.2,155.61c.46-.92-.46-1.95-2.06-2.29s-1.26,4.24-.57,4.81S328.86,156.52,329.2,155.61Z"/><path class="cls-2" d="M337.34,184.25c1.83,1.26,6,.69,6.07-1.72C341.58,181.27,337.22,181.5,337.34,184.25Z"/><path class="cls-2" d="M336.31,127.42a2.64,2.64,0,0,0-.92,2.41H335c-.57,0-.69,2.41,0,2.86s2.18-1.83,3-2.41a3.9,3.9,0,0,1,2.64-.69,7.68,7.68,0,0,0,3.09-.92,2.75,2.75,0,0,0,.92-1c-.34-1.72-.8-3.44-1.15-5.27l-2.06,1.49Z"/><path class="cls-3" d="M294.14,176.46"/><path class="cls-2" d="M305.6,187.12a21.08,21.08,0,0,0-4.81-5.61l-.69-1.26-.8-1.37c-.69-1.49-3-2.64-3.21-3.09s-.92,1.26-1.72.8l2.41,1.72c2.06,1.49,6.19,11.92,7.22,12.6S306.29,188.61,305.6,187.12Z"/><path class="cls-2" d="M272.71,170.27c-.57,1.15,3,3.67,3.32,3.09a7.56,7.56,0,0,0-1-4C274.32,168.67,273.4,169.13,272.71,170.27Z"/><path class="cls-2" d="M224.59,225.73c.11,1.26,2.64,2.18,3.32,1.95s2.75-3.9,3-4.93a32.22,32.22,0,0,0,.57-3.9,5,5,0,0,1,.57-1.95,7.68,7.68,0,0,0,1-2.75c.23-1.37-1.49-7.91-1.49-9.05s-1.26.57-1.6,1.72-3.55,3.55-4.35,4.47-1.49,4.24-1.15,4.81a7.33,7.33,0,0,1-.57,3.44C223.44,220.23,224.36,224.59,224.59,225.73Z"/><path class="cls-2" d="M107.14,271.11h2.18C109.54,268.7,107,269,107.14,271.11Z"/><path class="cls-2" d="M165.58,24.29a7.33,7.33,0,0,1-3.67-.8,8.82,8.82,0,0,0-4.93-.34c-1,.46-.34-2.52,1-2.75s.23-2.29-1.26-2.29-5.27-.57-6.07-.34a14.79,14.79,0,0,1-3.21-.69c-.57-.11-5.16,1.37-7.22,1.26a48.7,48.7,0,0,0-8.48.46c-1.15.23-1.95,2.52-1.72,3.32s-5,.8-6.65.8S113,24.75,110.69,26s-4,4.47-3.32,4.47-1.26,1.83-2.52,2.29-4.13.57-4.81,1.26.69,1.15.92,1.6,1-.34,1.83.11,3.32.57,4,.92-2.18.8-3.44.92-1,2.64,0,3.09,3.9.69,4.13.23,3.32.46,4.7.69,2.41,3.55,2.86,4.35.46,3.32.46,4.13,2.41,2.06,2.86,1.6.34,1.15-.69,1-.34,2.75.92,3.21.34,2.18-.34,2.75-.34,2.18-1,2.86,2.64,6.42,2.52,9.4,1.83,5.39,2.52,5.39,3.09.57,3.44,1.26,1.49-.46,1.95-.92a29.42,29.42,0,0,0,2.18-3.21c.8-1.26,2.41-7.22,2.64-7.91s3-.23,3.67-.57a29.09,29.09,0,0,0,3-2.18c.46-.46,4.47-2.06,5.61-2.86s2.86-4.13,3.78-4.93-.46-.46-1.49-1.15a1.15,1.15,0,0,1-.23-1.83c.23-.34,3.55.46,4.58.92s3.21-1,2.41-1.6-.34-.57,0-.34.8-1.95.46-2.41,3.21-3.09,2.64-5.61.92-5.16,1.95-5.16.69-2.86-.57-3.09,0-.46.46-.92a7.22,7.22,0,0,0,.69-3.44c-.23-.46,1.83-1,2.18-1.6a9.74,9.74,0,0,1,3.55-1.83C165.81,26.58,166.38,24.29,165.58,24.29Z"/><path class="cls-2" d="M186.2,26.58c-1.15-.34-3.44.92-3.09,1.6s-1.83-.92-3.32-.11-1.95,3.44-1.26,3.78,1.15,2.41,1.15,2.86,2.86.11,3.67-.46.57,2.06-.11,2.86.23,2.18,1,2.29,1.83,1.95,2.75,1.95,2.29-3.21,2.52-4.35,3.09-.23,4.35.11,1.72-4.35.34-5.16-3.09-.34-3.67-.92a4.35,4.35,0,0,0-2.18-1.15C187.92,29.79,187.35,26.93,186.2,26.58Z"/><path class="cls-2" d="M197.32,28.88a7.91,7.91,0,0,0,5.27-2.06c.57-.46-6.19-1.83-8.82-1.95s-4.58.23-4.58.8S195.14,28.53,197.32,28.88Z"/><path class="cls-2" d="M156.29,89.72c-.57-.23-.92,1.95-.8,2.75s2.18.8,3.09.57a1.83,1.83,0,0,0,1.49-1.6c0-.69-1.26-4-1.72-4S156.87,89.95,156.29,89.72Z"/><path class="cls-2" d="M162.94,63.71c-.46-.8-3.9-.69-4.81-.69a12.15,12.15,0,0,1-4-1.49c-.57-.57-.8,2.18-1.6,2.52s.46.8.69.57,0,1.37-.46,1.95,2.29.92,2.64,1.83a2.29,2.29,0,0,0,2.41,1.26c1-.11,3.09-1.26,3.9-1.37S163.4,64.63,162.94,63.71Z"/><path class="cls-2" d="M237.08,43.54c1.15-1.15,6.19-2.86,6.76-4.13a1.6,1.6,0,0,0-.59-2.19l-.21-.1a1.72,1.72,0,0,0-1.26.8c-.11.23-5.84,1.49-7.56,2.41a19,19,0,0,0-4.47,2.86c-.69.69-1.95,6.42-2.29,7s1.83,2.86,2.86,3.55a5.27,5.27,0,0,0,2.86.23c.46-.11-.46-4-1-5.39S235.93,44.8,237.08,43.54Z"/><path class="cls-2" d="M231,28.76c1.83,1.83,2.86-.8,4.93-.57C235.93,24.29,230.78,25.78,231,28.76Z"/><path class="cls-2" d="M267.56,29.56c0,.69,5.16,1.26,6.76.92S274,27.84,271.8,28,267.56,28.88,267.56,29.56Z"/><path class="cls-2" d="M76.89,68.52c-.57.46,0,3.09.92,3.09s2.75-3.9,4-3.09,2.18,1,1.95.69-3.9-1.95-4.35-2.29S77.46,68.06,76.89,68.52Z"/><path class="cls-2" d="M90.29,156.07c0,.46,2.29.34,2.64-.34s.11-1.26-.46-1.26A3.67,3.67,0,0,0,90.29,156.07Z"/><path class="cls-2" d="M80.1,152.28c1-.23.57,1.49.8,2.18s2.86,1.15,3.44,1.6,1.83-.8,2.86-.69-.34-3.67-2.06-3.55S82,150.22,81.58,150a19,19,0,0,1-3-1.83c-.57-.46-5-.8-6.53-.8a4.7,4.7,0,0,0-3.44,2.06c-.23.46,2.41.92,3.09.46s4.24.46,5,1.26A4.24,4.24,0,0,0,80.1,152.28Z"/><path class="cls-2" d="M75.28,156.07c0,.46,2.29.11,2.86.11s.57-.46,0-.8S75.28,155.61,75.28,156.07Z"/><path class="cls-2" d="M76.89,144.15c-.57-.23-1,.69-1,1.15a.8.8,0,0,0,.69.8C77,146.1,77.57,144.38,76.89,144.15Z"/><path class="cls-2" d="M81.81,144.49a2,2,0,0,0-1.49-.8c-.34,0-.46.69-.46,1.72S81.93,145,81.81,144.49Z"/><path class="cls-2" d="M85.25,149.88c.92-.46,1-1.49.46-1.49s-1.6-1.6-2.18-1.83-1,1-1,1.49a.69.69,0,0,0,.56.79h.12C83.65,148.73,84.33,150.34,85.25,149.88Z"/><path class="cls-2" d="M344.33,186.32c-.46.23-2.75.46-3.09.11s-.69.92-1.26,1.15-.23,1.37.57,1,2.75.92,4.47,2.06c.34-1.72.69-3.55.92-5.39Z"/><path class="cls-2" d="M77.92,206.83c-.23.46,2.64,3.32,3.67,4.35a29.8,29.8,0,0,1,3.9,7.33,13.18,13.18,0,0,1,0,4.7,8,8,0,0,0,.57,2.41c.11.57-.92,5.16-.57,7.1s-2.18,7.68-2.06,10.66,1.37,6.65,1.83,6.42.69,2.64-.11,3-1.95,2.64-1.37,2.75,0,2.41.11,3.32.92,7,1,8.48,2.29,5.16,2.75,6.42.92,3.55,1,3.9l.34.8a10.88,10.88,0,0,1,2.29,1c.46.34,3.9.11,5-.11s.11-1.26-.34-1.72-.92-3.21-1.49-3.44-.8-3.67-.34-4.47,2.52-1.95,2.75-2.64.23-3.55-.23-4,.11-4-.23-5.84,3.09-3.44,3.32-4.81,4-3,4.81-3.67,1.6-4.81,1.15-5.61,1.37-1.6,2.18-1.6A11.46,11.46,0,0,0,110,241c.23,0,1.26-1.83,1.72-2.18s1.6-4.7,2.52-5.39a7.79,7.79,0,0,0,1.72-4,10.66,10.66,0,0,1,1.95-3.67c.46-.69,4-2.29,4.7-2.52s1.6-6,1.83-8a46.2,46.2,0,0,1,1.37-5.5c0-.69,1.15-1.26,1.37-1.49s1-2.86,1.6-3.44,2.52-3.09,2.52-3.67a18.22,18.22,0,0,1,.69-3.21v-3.55c-.57-1.72-2.52-3.9-3-3.32s-2.64-1.49-3.78-1.95a18.68,18.68,0,0,0-4.58-.69c-.69,0-3.09-1.95-4.24-2.29s-3.9-.8-4.35-1.15-1.15-4.47-3.44-5.84-6.19-4.58-6.65-5.73-4.7-3.55-6.07-4.35-3.32-.92-3.55-.57-1.95-2.29-2.75-3-3.44-1.26-3.55-.69-1.83.23-2.18-.23-1.72.23-2.41.46-2.75,3.44-3.78,4.24-2.18-.69-2.86-1a6.88,6.88,0,0,0-3.78,1c-.69.46-2.18-3.44-1.83-5.27s-1.6-5.39-3.21-5.5-1.95-3.9-1.72-5.27-2.75-2.29-3.55-2.41-2.64,1.83-3,2.86-7.33-1.26-6.53-5.5,4.13-8.59,4.93-9.05,5.27-.69,6.3-.11a1.83,1.83,0,0,0,2.06-.23,14,14,0,0,1,4.93.46c1,.46,2.64,4.7,3.78,5.16s1.49-2.75,1.72-3.55a10.31,10.31,0,0,0-.8-3.32c-.23-.57,1.83-5.73,3.55-6.53s3.55-3.78,3.32-4.24,1.37-.92,1.72-1.15,0-4.35.57-5.27a19.71,19.71,0,0,1,4.93-3.21c1-.46,1.72-3,1.37-3.55s2.64-3,4.24-3.55,2.86.92,2.52,1,2.41-1.26,3.32-1.83,0-2.64-.69-3.21-.23-2.75.57-3,1.49-2.18,1.26-2.52,3.44.34,4.81-.69.34,2.41-.57,3.9a1.6,1.6,0,0,0,1.37,2.52,1.49,1.49,0,0,1,1.49,1.15c.11.34,1.49-.46,2.41,0s1.49-1.26,1.49-2.06-2.18-2.29-2.52-3.32a52.71,52.71,0,0,1-.46-7.45c0-1-1.49-2.86-1.95-2.52s-1.37-2.86-2.18-3.55a4,4,0,0,1-.92-2.75c0-.46-2.52-3.21-3.21-4.47s-1.49-1-1.6-.46-1.83.69-2.64.57-1.37-3-1.37-4-3.32-1.26-3.9-2.18-2.75-.46-3.09-1a3.67,3.67,0,0,0-2.64-.92c-.34.23-.23,8.14-.57,10.2s-2.18,4-2.86,3.9-.23,1.49.11,1.37-1.26,2.29-1.49,3.9-1.83,0-2.06-1.49-1.83-3.44-2.18-3-1.37-.57-1.83-.23-3.44-1.72-4.7-2.41-1.83-4.35-2.64-4.7S67,80,67,79.41s2.41-2.75,3.09-3.55a56.78,56.78,0,0,1,4.35-5c1-.8,1.83-2.64,1.6-3s4.47-1.83,5.73-2.18,2.29-3.9,2.52-4.93A4.24,4.24,0,0,0,83,57.63c-.57-.23,1.72-.34,2.52.11s3.09-.69,4.13-.23L93.84,60l-.23,2.52L93,66.92c-3.67,1.49-4.7,4.13-3.44,4s7.1,2.52,8.71,3.67,2.18-1.72,2.64-2.64a7.68,7.68,0,0,0,0-4.24c-.46-.57,1.83-.34,2.52.23s1.37-.57,1.83-.92.69-2.64,1-3.09-1-.92-1.15-1.6-2.64-1.72-3.44-2.18a2.06,2.06,0,0,1-.57-2.52c.34-.34-.23-2.64-.69-3.32s-3.09-1.37-4-1.37-1.83-2.06-2.41-2.41a16.73,16.73,0,0,0-4.93-.46c-.8.23-2.41-2.52-3.9-1.6s-3-.92-3.67-1.37-4.13,3.32-4,5.84,1.26,5,1.83,5.16-.11,2.41-.69,3.09-2.06-.69-1.49-1.26-1.49-3.32-2.18-4.35-2.29-1.49-3.44-1.95l-2.06,2.29A5.85,5.85,0,0,1,69.78,59c-.46,1.6-1.83,1.83-1.83,1.15a2,2,0,0,0-1.49-.57L64.4,62.22l-2.06,2.64-2.06,2.86-1.83,2.52-2.64,3.9-2.41,3.78c-.69,1-1.26,2.18-1.95,3.32a12.83,12.83,0,0,0-1.26,2.29l-1.95,3.55-1,2.06c-1.37,2.75-2.75,5.61-4,8.59V98l-1.72,4.35-.69,1.6-1.6,4.47-.23.69a157.64,157.64,0,0,0-4.47,15.47c-.11.34-.11.69-.23,1a158,158,0,0,0-2.86,16.84h0a7.56,7.56,0,0,1,1.83,2.64c.46,1.37,2.86,2.29,3.32,2.64s.57-2.64.23-3.44.57-1.15.57-.69,2.29,3.09,3,4.13,1.49,7,2.29,8.25,7.68,4,10,4.47a12.61,12.61,0,0,1,5.5,3.67c.46.69,3.44,1,4,1.37a31.81,31.81,0,0,1,2.75,2.75A4,4,0,0,1,66,170.16c0,.34,3.9,1.83,4.93,2.86a2.41,2.41,0,0,0,2.86.34c.23-.46,1,2.06,1.49,3s.46,3,.11,3.32-.8,4.24-1.49,5-2.06,6.53-1.72,7.68a8.48,8.48,0,0,0,3,3.78.92.92,0,0,1-.11,1.6c-.57,0-.34,5.61,1.15,6.42S78.15,206.48,77.92,206.83Z"/><line class="cls-4" x1="96.6" y1="109.77" x2="96.6" y2="109.77"/><path class="cls-2" d="M85.71,42.51c1.83-.34,5-.92,5.27-1.37A4.81,4.81,0,0,0,90.87,39h.92c.69,0,1.95-3.9,2.64-4.81s5-2.29,6.07-2.86,3.32-2.75,4.13-3.09,2.18-2.29,1.95-2.64,3-2.29,4.13-2.75,1.83-1.83,1.37-1.95-6.88,3.44-12.95,6.88H99L93.85,31.4,90.52,34,88.8,35.41l-3.9,3.32-.8.69L79.87,43.2Z"/><path class="cls-2" d="M186.66,120.31c-.69,0-.8,2.18,0,2.52s1.26-1.26,1.95-2.18v-8.82h-.11c-.92-.92-.8-.92.11-.23V56.95l-2.06,1.83c-1.26,1-3.55,5.39-4.24,6.53a2.75,2.75,0,0,1-2.18,1.26,2.18,2.18,0,0,0-.8,1.6c0,.46-3.78,2.41-4.24,4.13s.46,5.73.46,7.1,1.37,4.24,2.41,4.24.57,2.41.23,3.09.69,1.37.57,1.95-2.64,1.37-3.44,1.6A5.73,5.73,0,0,0,173,93.16c-.11.57-2.64,1-3.55,1.83s.57-1.37.69-1.83a3.09,3.09,0,0,0-.57-2.86c-.34-.34-.57-4.93-1.26-6a25.68,25.68,0,0,0-2.64-3c-.46-.34.23-1.49.57-2.06s-2.18-.8-2.75-.46-1,4.93-1.26,6.19a3.9,3.9,0,0,0,1.6,3.21c.46.11.23,2.29-.57,2.41s-1.6,3.32-1.15,4.13-.57,2.18-1,2.52,3.21.11,4.93.11a4.47,4.47,0,0,1,2.86.8c-.11.11-3.21.57-3.78,1.26s-2.64,2.06-3,2.64.69,1.72,1.49,1.72,1.83,3,2.52,3.55a2.52,2.52,0,0,1,.11,2.64c-.23.46-4.47-.23-6,.11s-3.55,3.67-3.67,4.93a32.08,32.08,0,0,0,.46,5.84c.11.92,3.44,1.6,4.13,2.06s3.78,0,4.47.34,2.75-3.21,3.21-4.81,3.78-4.58,4.47-5.73,4.24-.92,5.16-1.49.46,2.75.8,4.58,3.9,1.6,3.32-.11.34-2.41.46-1.83,3.44,1.95,4.13,2.86S187.35,120.31,186.66,120.31Z"/><path class="cls-2" d="M188.61,131.2a8.94,8.94,0,0,0-1.72-.8c-2.06-.8-3.67-3.9-4-4.35s.34-1.37.11-2.06-4.81-.69-6.19-.23-8.36,1.26-10,1.95-4.13,0-4.93-.11-2.64,2.18-3.55,2.52-2.06,3.67-2.64,7.22l-1.26,2.41-.8,1.6c-2.29,1.72-4.81,7.56-5.61,8.82s-1.37,9.63-1.37,12.49,2.41,8.82,3.21,10.54,4.93,5.27,6.42,6.19,6.07,1,7.56,1a4.47,4.47,0,0,0,3.78-3.21l2.18.23h1c0,1.26,3.32,2.18,4.13,2.64a6.3,6.3,0,0,0,3.55-.11c.57-.11,1.37,5.61.92,7.33s1.15,7.56,1.6,9.4,2.52,6.65,2.64,8.36-1.15,7.56-1.37,9.63,2.52,7.68,3.21,9.63a35.52,35.52,0,0,1,1.26,7.1,21.3,21.3,0,0,0,1.6,4.13V131h0Z"/><path class="cls-2" d="M107.14,271.11h2.18C109.54,268.7,107,269,107.14,271.11Z"/><path class="cls-2" d="M151.14,53.05c1.15.46,3.21-1,2.41-1.6s-.34-.57,0-.34.8-1.95.46-2.41,3.21-3.09,2.64-5.61,1-5.16,1.95-5.16.69-2.86-.57-3.09,0-.46.46-.92a7.22,7.22,0,0,0,.69-3.44c-.23-.46,1.83-1,2.18-1.6A8.94,8.94,0,0,1,164.89,27c.92-.11,1.26-2.41.46-2.29a7.33,7.33,0,0,1-3.67-.8c-.46-.46-3.9-.8-4.93-.46s-.34-2.52,1-2.75.23-2.29-1.26-2.29-5.27-.57-6.07-.34a14.79,14.79,0,0,1-3.21-.69c-.57-.11-5.16,1.37-7.22,1.26a48.35,48.35,0,0,0-8.48.46c-1.15.23-1.95,2.52-1.72,3.32s-5,.8-6.65.8-10.43,1.83-12.72,3.09-4,4.47-3.32,4.47-1.26,1.83-2.52,2.29-4.13.57-4.81,1.26.69,1.15.92,1.6,1-.46,1.83,0,3.32.57,4,.92-2.18.8-3.44.92-1,2.64,0,3.09,3.9.69,4.13.23,3.32.46,4.7.69,2.41,3.55,2.86,4.35.46,3.32.46,4.13,2.41,2.06,2.86,1.6.34,1.15-.69,1-.34,2.75.92,3.21.34,2.18-.34,2.75-.34,2.18-1,2.86,2.64,6.42,2.52,9.4,1.83,5.39,2.52,5.39,3.09.57,3.44,1.26,1.49-.46,1.95-.92a29.42,29.42,0,0,0,2.18-3.21c.8-1.26,2.41-7.22,2.64-7.91s3-.23,3.67-.57a29.09,29.09,0,0,0,3-2.18c.46-.46,4.47-2.06,5.61-2.86s2.86-4.13,3.78-4.93-.46-.46-1.49-1.15a1.15,1.15,0,0,1-.23-1.83C146.78,51.79,150.11,52.59,151.14,53.05Z"/><path class="cls-2" d="M186.2,26.58c-1.15-.34-3.44.92-3.09,1.6s-1.83-.92-3.32-.11-1.95,3.44-1.26,3.78,1.15,2.41,1.15,2.86,2.86.11,3.67-.46.57,2.06-.11,2.86.23,2.18,1,2.29,1.83,1.95,2.75,1.95a2.75,2.75,0,0,0,1.49-1.72V29.79h0C187.92,29.79,187.35,26.93,186.2,26.58Z"/><path class="cls-2" d="M158.7,93a1.83,1.83,0,0,0,1.49-1.6c0-.69-1.26-4-1.72-4s-1.37,2.41-2.06,2.18-.92,1.95-.8,2.75S157.67,93.27,158.7,93Z"/><path class="cls-2" d="M155.49,68.41a2.29,2.29,0,0,0,2.41,1.26c1-.11,3.09-1.26,3.9-1.37s1.49-3.78,1-4.58S158.93,63,158,63a12.15,12.15,0,0,1-4-1.49c-.57-.57-.8,2.18-1.6,2.52s.34.8.69.57,0,1.37-.46,1.95S155.26,67.72,155.49,68.41Z"/><path class="cls-2" d="M76.89,68.52c-.57.46,0,3.09.92,3.09s2.75-3.9,4-3.09,2.18,1,1.95.69-3.9-1.95-4.35-2.29S77.46,68.06,76.89,68.52Z"/><path class="cls-2" d="M90.29,156.07c0,.46,2.29.34,2.64-.34s.11-1.26-.46-1.26A3.67,3.67,0,0,0,90.29,156.07Z"/><path class="cls-2" d="M80.1,152.28c1-.23.57,1.49.8,2.18s2.86,1.15,3.44,1.6,1.83-.8,2.86-.69-.34-3.67-2.06-3.55S82,150.22,81.58,150a19,19,0,0,1-3-1.83c-.57-.46-5-.8-6.53-.8a4.7,4.7,0,0,0-3.44,2.06c-.23.46,2.41.92,3.09.46s4.24.46,5,1.26A4.24,4.24,0,0,0,80.1,152.28Z"/><path class="cls-2" d="M75.28,156.07c0,.46,2.29.11,2.86.11s.57-.46,0-.8S75.28,155.61,75.28,156.07Z"/><path class="cls-2" d="M76.89,144.15c-.57-.23-1,.69-1,1.15a.8.8,0,0,0,.69.8C77,146.1,77.57,144.38,76.89,144.15Z"/><path class="cls-2" d="M81.81,144.49a2,2,0,0,0-1.49-.8c-.34,0-.46.69-.46,1.72S81.93,145,81.81,144.49Z"/><path class="cls-2" d="M85.25,149.88c.92-.46,1-1.49.46-1.49s-1.6-1.6-2.18-1.83-1,1-1,1.49a.69.69,0,0,0,.56.79h.12C83.65,148.73,84.33,150.34,85.25,149.88Z"/><path class="cls-5" d="M91,39.3c-.11-.11-.8.34-.46.57A.37.37,0,0,0,91,39.3Z"/><path class="cls-5" d="M108.63,91.9c-.11-.11-.8.34-.57.57S109,92.24,108.63,91.9Z"/><path class="cls-6" d="M107.94,46.29H19.36A19.36,19.36,0,0,0,0,65.66V278a19.36,19.36,0,0,0,19.36,19.36h88.57A19.36,19.36,0,0,0,127.3,278V65.77a19.25,19.25,0,0,0-19-19.48Z"/><path class="cls-7" d="M46.87,61.42H80.32A1.72,1.72,0,0,1,82,63.14a1.6,1.6,0,0,1-1.48,1.72H46.87a1.72,1.72,0,1,1,0-3.44Z"/><path class="cls-7" d="M63.59,283.14a11.23,11.23,0,1,1,11.23-11.23A11.34,11.34,0,0,1,63.59,283.14Z"/><rect class="cls-7" x="8.25" y="84.56" width="110.57" height="163.73"/><path class="cls-3" d="M63.59,264.12a7.91,7.91,0,0,0-7.79,7.79,7.79,7.79,0,1,0,7.79-7.79Z"/><rect class="cls-8" x="14.67" y="122.38" width="97.86" height="50.31"/><rect class="cls-9" x="41.48" y="100.72" width="70.7" height="6.99"/><path class="cls-9" d="M33,104.27a9.17,9.17,0,1,1-9.17-9.17A9.17,9.17,0,0,1,33,104.27Z"/><rect class="cls-9" x="14.67" y="204.99" width="97.86" height="2.88"/><rect class="cls-9" x="14.67" y="214.96" width="97.86" height="2.88"/><rect class="cls-9" x="14.67" y="224.82" width="97.86" height="2.88"/><rect class="cls-9" x="14.67" y="234.67" width="71.04" height="2.88"/><rect class="cls-9" x="14.67" y="185.86" width="65.08" height="6.99"/><path class="cls-7" d="M41.82,151.71V139h2.29l1.95,5,1.37,3.67h0c-.11-1.37-.23-3.55-.23-5.84V139h2.18v12.72H47.09l-1.95-4.81a36.69,36.69,0,0,1-1.26-3.78h0c0,1.26.11,3.21.11,5.84v2.86H41.82Z"/><path class="cls-7" d="M56.95,146.1H54.08v3.44h3.32v2.18H51.68V139h5.5v2.18H54.08v3h2.86v1.95Z"/><path class="cls-7" d="M60.39,141.28H58.09V139h7v2.29H62.79v10.43H60.27V141.28Z"/><path class="cls-7" d="M68.18,151.71,66,139h2.52l.57,5c.11,1.49.23,2.86.46,4.47h0c.11-1.6.46-3,.69-4.47l.92-5h1.95l.8,5c.23,1.49.46,2.86.57,4.47h0l.46-4.47.57-5h2.41l-2.29,12.72H73.45l-.8-4.13c-.23-1.15-.34-2.64-.57-4.13h0c-.23,1.49-.46,3-.69,4.24l-.8,4.13H68.18Z"/><path class="cls-7" d="M87.2,145.18c0,4.81-1.72,6.76-4.13,6.76s-4-3.09-4-6.53,1.37-6.53,4.24-6.53S87.2,142.2,87.2,145.18Zm-5.61.23c0,2.86.57,4.35,1.6,4.35s1.49-1.83,1.49-4.47-.34-4.24-1.49-4.24S81.58,142.66,81.58,145.41Z"/><path class="cls-7" d="M88.69,139.22l2.75-.23a4.93,4.93,0,0,1,3.44.92,3.21,3.21,0,0,1,1,2.64A3.44,3.44,0,0,1,94,145.75h0c.92.34,1.26,1.15,1.6,2.52a20.52,20.52,0,0,0,.8,3.44H93.73a17.53,17.53,0,0,1-.57-3.09c-.23-1.6-.57-2.06-1.49-2.06h-.34v5H88.8V139.11Zm2.52,5.5h.46A1.72,1.72,0,0,0,93.4,143a1.74,1.74,0,0,0,0-.24A1.6,1.6,0,0,0,92,141l-.25,0h-.57Z"/><path class="cls-7" d="M97.63,139h2.52v5.73h0l.57-1.6,1.72-4.13h2.75l-2.86,5.5,2.86,7.22h-2.75l-1.83-5.27-.57,1v4.24H97.51V139Z"/><g id="Page-1"><g id="xamagon"><path id="Logo" class="cls-7" d="M24.75,137.16a1.49,1.49,0,0,0-1.49.57l-4.58,7.79a1.6,1.6,0,0,0,0,1.6l4.58,7.79a1.6,1.6,0,0,0,1.49.69h9.17a1.6,1.6,0,0,0,1.49-.69L40,147.13a1.6,1.6,0,0,0,0-1.6L35.41,138a1.49,1.49,0,0,0-1.49-.57H24.75Zm.11,3.78v-.34h1.6a1.26,1.26,0,0,1,.23.46L29.33,146h0l2.64-5a1,1,0,0,1,.23-.34h1.6a.57.57,0,0,1,.23.57L31.4,146,34,150c.11.11,0-.34-.23-.34H32.2c-.11,0-.11.69-.23.57l-2.64-4.35h0L26.7,150c0,.11-.11-.57-.23-.57h-1.6c-.11,0-.23.46-.23.34l2.64-4.35-2.64-4.58a.23.23,0,0,1,.06-.32l.05,0h0Z"/></g></g></g></g></g></svg>