<svg xmlns="http://www.w3.org/2000/svg" xmlns:xlink="http://www.w3.org/1999/xlink" viewBox="0 0 214.04 318.8"><defs><style>.cls-1{fill:url(#Degradado_sin_nombre_3);}.cls-192,.cls-2{opacity:0.8;}.cls-203,.cls-3{fill:#fff;}.cls-4{fill:#fefefe;opacity:1;}.cls-10,.cls-100,.cls-101,.cls-102,.cls-103,.cls-104,.cls-105,.cls-106,.cls-107,.cls-108,.cls-109,.cls-11,.cls-110,.cls-111,.cls-112,.cls-113,.cls-114,.cls-115,.cls-116,.cls-117,.cls-118,.cls-119,.cls-12,.cls-120,.cls-121,.cls-122,.cls-123,.cls-124,.cls-125,.cls-126,.cls-127,.cls-128,.cls-129,.cls-13,.cls-130,.cls-131,.cls-132,.cls-133,.cls-134,.cls-135,.cls-136,.cls-137,.cls-138,.cls-139,.cls-14,.cls-140,.cls-141,.cls-142,.cls-143,.cls-144,.cls-145,.cls-146,.cls-147,.cls-148,.cls-149,.cls-15,.cls-150,.cls-151,.cls-152,.cls-153,.cls-154,.cls-155,.cls-156,.cls-157,.cls-158,.cls-159,.cls-16,.cls-160,.cls-161,.cls-162,.cls-163,.cls-164,.cls-165,.cls-166,.cls-167,.cls-168,.cls-169,.cls-17,.cls-170,.cls-171,.cls-172,.cls-173,.cls-174,.cls-175,.cls-176,.cls-177,.cls-178,.cls-179,.cls-18,.cls-180,.cls-181,.cls-182,.cls-183,.cls-184,.cls-185,.cls-186,.cls-187,.cls-188,.cls-189,.cls-19,.cls-190,.cls-191,.cls-192,.cls-195,.cls-197,.cls-199,.cls-20,.cls-201,.cls-203,.cls-207,.cls-21,.cls-22,.cls-23,.cls-24,.cls-25,.cls-26,.cls-27,.cls-28,.cls-29,.cls-30,.cls-31,.cls-32,.cls-33,.cls-34,.cls-35,.cls-36,.cls-37,.cls-38,.cls-39,.cls-4,.cls-40,.cls-41,.cls-42,.cls-43,.cls-44,.cls-45,.cls-46,.cls-47,.cls-48,.cls-49,.cls-5,.cls-50,.cls-51,.cls-52,.cls-53,.cls-54,.cls-55,.cls-56,.cls-57,.cls-58,.cls-59,.cls-6,.cls-60,.cls-61,.cls-62,.cls-63,.cls-64,.cls-65,.cls-66,.cls-67,.cls-68,.cls-69,.cls-7,.cls-70,.cls-71,.cls-72,.cls-73,.cls-74,.cls-75,.cls-76,.cls-77,.cls-78,.cls-79,.cls-8,.cls-80,.cls-81,.cls-82,.cls-83,.cls-84,.cls-85,.cls-86,.cls-87,.cls-88,.cls-89,.cls-9,.cls-90,.cls-91,.cls-92,.cls-93,.cls-94,.cls-95,.cls-96,.cls-97,.cls-98,.cls-99{isolation:isolate;}.cls-5{fill:#fdfdfd;opacity:1;}.cls-6{fill:#fcfcfc;opacity:1;}.cls-7{fill:#fbfbfb;opacity:1;}.cls-8{fill:#fafafa;opacity:0.99;}.cls-9{fill:#f9f9f9;opacity:0.99;}.cls-10{fill:#f8f8f8;opacity:0.99;}.cls-11{fill:#f7f7f7;opacity:0.99;}.cls-12{fill:#f6f6f6;opacity:0.99;}.cls-13{fill:#f5f5f5;opacity:0.99;}.cls-14{fill:#f4f4f4;opacity:0.99;}.cls-15{fill:#f3f3f3;opacity:0.99;}.cls-16{fill:#f2f2f2;opacity:0.99;}.cls-17{fill:#f1f1f1;opacity:0.99;}.cls-18{fill:#f0f0f0;opacity:0.98;}.cls-19{fill:#efefef;opacity:0.98;}.cls-20{fill:#eee;opacity:0.98;}.cls-21{fill:#ededed;opacity:0.98;}.cls-22{fill:#ececec;opacity:0.98;}.cls-23{fill:#ebebeb;opacity:0.98;}.cls-24{fill:#eaeaea;opacity:0.98;}.cls-25{fill:#e9e9e9;opacity:0.98;}.cls-26{fill:#e8e8e8;opacity:0.98;}.cls-27{fill:#e7e7e7;opacity:0.97;}.cls-28{fill:#e6e6e6;opacity:0.97;}.cls-29{fill:#e5e5e5;opacity:0.97;}.cls-30{fill:#e4e4e4;opacity:0.97;}.cls-31{fill:#e3e3e3;opacity:0.97;}.cls-32{fill:#e2e2e2;opacity:0.97;}.cls-33{fill:#e1e1e1;opacity:0.97;}.cls-34{fill:#e0e0e0;opacity:0.97;}.cls-35{fill:#dfdfdf;opacity:0.97;}.cls-36{fill:#dedede;opacity:0.97;}.cls-37{fill:#ddd;opacity:0.96;}.cls-38{fill:#dcdcdc;opacity:0.96;}.cls-39{fill:#dbdbdb;opacity:0.96;}.cls-40{fill:#dadada;opacity:0.96;}.cls-41{fill:#d9d9d9;opacity:0.96;}.cls-42{fill:#d8d8d8;opacity:0.96;}.cls-43{fill:#d7d7d7;opacity:0.96;}.cls-44{fill:#d6d6d6;opacity:0.96;}.cls-45{fill:#d5d5d5;opacity:0.96;}.cls-46{fill:#d4d4d4;opacity:0.95;}.cls-47{fill:#d3d3d3;opacity:0.95;}.cls-48{fill:#d2d2d2;opacity:0.95;}.cls-49{fill:#d1d1d1;opacity:0.95;}.cls-50{fill:#d0d0d0;opacity:0.95;}.cls-51{fill:#cfcfcf;opacity:0.95;}.cls-52{fill:#cecece;opacity:0.95;}.cls-53{fill:#cdcdcd;opacity:0.95;}.cls-54{fill:#ccc;opacity:0.95;}.cls-55{fill:#cbcbcb;opacity:0.94;}.cls-56{fill:#cacaca;opacity:0.94;}.cls-57{fill:#c9c9c9;opacity:0.94;}.cls-58{fill:#c8c8c8;opacity:0.94;}.cls-59{fill:#c7c7c7;opacity:0.94;}.cls-60{fill:#c6c6c6;opacity:0.94;}.cls-61{fill:#c5c5c5;opacity:0.94;}.cls-206,.cls-62{fill:#c4c4c4;}.cls-62{opacity:0.94;}.cls-63{fill:#c3c3c3;opacity:0.94;}.cls-64{fill:#c2c2c2;opacity:0.94;}.cls-65{fill:#c1c1c1;opacity:0.93;}.cls-66{fill:silver;opacity:0.93;}.cls-67{fill:#bfbfbf;opacity:0.93;}.cls-68{fill:#bebebe;opacity:0.93;}.cls-69{fill:#bdbdbd;opacity:0.93;}.cls-70{fill:#bcbcbc;opacity:0.93;}.cls-71{fill:#bbb;opacity:0.93;}.cls-72{fill:#bababa;opacity:0.93;}.cls-73{fill:#b9b9b9;opacity:0.93;}.cls-74{fill:#b8b8b8;opacity:0.92;}.cls-75{fill:#b7b7b7;opacity:0.92;}.cls-76{fill:#b6b6b6;opacity:0.92;}.cls-77{fill:#b5b5b5;opacity:0.92;}.cls-78{fill:#b4b4b4;opacity:0.92;}.cls-79{fill:#b3b3b3;opacity:0.92;}.cls-80{fill:#b2b2b2;opacity:0.92;}.cls-81{fill:#b1b1b1;opacity:0.92;}.cls-82{fill:#b0b0b0;opacity:0.92;}.cls-83{fill:#afafaf;opacity:0.92;}.cls-84{fill:#aeaeae;opacity:0.91;}.cls-85{fill:#adadad;opacity:0.91;}.cls-86{fill:#acacac;opacity:0.91;}.cls-87{fill:#ababab;opacity:0.91;}.cls-88{fill:#aaa;opacity:0.91;}.cls-89{fill:#a9a9a9;opacity:0.91;}.cls-90{fill:#a8a8a8;opacity:0.91;}.cls-91{fill:#a7a7a7;opacity:0.91;}.cls-92{fill:#a6a6a6;opacity:0.91;}.cls-93{fill:#a5a5a5;opacity:0.9;}.cls-94{fill:#a4a4a4;opacity:0.9;}.cls-95{fill:#a3a3a3;opacity:0.9;}.cls-96{fill:#a2a2a2;opacity:0.9;}.cls-97{fill:#a1a1a1;opacity:0.9;}.cls-98{fill:#a0a0a0;opacity:0.9;}.cls-99{fill:#9f9f9f;opacity:0.9;}.cls-100{fill:#9e9e9e;opacity:0.9;}.cls-101{fill:#9d9d9d;opacity:0.9;}.cls-102{fill:#9c9c9c;opacity:0.9;}.cls-103{fill:#9b9b9b;opacity:0.89;}.cls-104{fill:#9a9a9a;opacity:0.89;}.cls-105{fill:#999;opacity:0.89;}.cls-106{fill:#989898;opacity:0.89;}.cls-107{fill:#979797;opacity:0.89;}.cls-108{fill:#969696;opacity:0.89;}.cls-109{fill:#959595;opacity:0.89;}.cls-110{fill:#949494;opacity:0.89;}.cls-111{fill:#939393;opacity:0.89;}.cls-112{fill:#929292;opacity:0.88;}.cls-113{fill:#919191;opacity:0.88;}.cls-114{fill:#909090;opacity:0.88;}.cls-115{fill:#8f8f8f;opacity:0.88;}.cls-116{fill:#8e8e8e;opacity:0.88;}.cls-117{fill:#8d8d8d;opacity:0.88;}.cls-118{fill:#8c8c8c;opacity:0.88;}.cls-119{fill:#8b8b8b;opacity:0.88;}.cls-120{fill:#8a8a8a;opacity:0.88;}.cls-121{fill:#898989;opacity:0.88;}.cls-122{fill:#888;opacity:0.87;}.cls-123{fill:#878787;opacity:0.87;}.cls-124{fill:#868686;opacity:0.87;}.cls-125{fill:#858585;opacity:0.87;}.cls-126{fill:#848484;opacity:0.87;}.cls-127{fill:#838383;opacity:0.87;}.cls-128{fill:#828282;opacity:0.87;}.cls-129{fill:#818181;opacity:0.87;}.cls-130{fill:gray;opacity:0.87;}.cls-131{fill:#7f7f7f;opacity:0.86;}.cls-132{fill:#7e7e7e;opacity:0.86;}.cls-133{fill:#7d7d7d;opacity:0.86;}.cls-134{fill:#7c7c7c;opacity:0.86;}.cls-135{fill:#7b7b7b;opacity:0.86;}.cls-136{fill:#7a7a7a;opacity:0.86;}.cls-137{fill:#797979;opacity:0.86;}.cls-138{fill:#787878;opacity:0.86;}.cls-139{fill:#777;opacity:0.86;}.cls-140{fill:#767676;opacity:0.86;}.cls-141{fill:#757575;opacity:0.85;}.cls-142{fill:#747474;opacity:0.85;}.cls-143{fill:#737373;opacity:0.85;}.cls-144{fill:#727272;opacity:0.85;}.cls-145{fill:#717171;opacity:0.85;}.cls-146,.cls-211{fill:#707070;}.cls-146{opacity:0.85;}.cls-147{fill:#6f6f6f;opacity:0.85;}.cls-148{fill:#6e6e6e;opacity:0.85;}.cls-149{fill:#6d6d6d;opacity:0.85;}.cls-150{fill:#6c6c6c;opacity:0.84;}.cls-151{fill:#6b6b6b;opacity:0.84;}.cls-152{fill:#6a6a6a;opacity:0.84;}.cls-153{fill:#696969;opacity:0.84;}.cls-154{fill:#686868;opacity:0.84;}.cls-155{fill:#676767;opacity:0.84;}.cls-156{fill:#666;opacity:0.84;}.cls-157{fill:#656565;opacity:0.84;}.cls-158{fill:#646464;opacity:0.84;}.cls-159{fill:#636363;opacity:0.83;}.cls-160{fill:#626262;opacity:0.83;}.cls-161{fill:#616161;opacity:0.83;}.cls-162{fill:#606060;opacity:0.83;}.cls-163{fill:#5f5f5f;opacity:0.83;}.cls-164{fill:#5e5e5e;opacity:0.83;}.cls-165{fill:#5d5d5d;opacity:0.83;}.cls-166{fill:#5c5c5c;opacity:0.83;}.cls-167{fill:#5b5b5b;opacity:0.83;}.cls-168{fill:#5a5a5a;opacity:0.83;}.cls-169{fill:#595959;opacity:0.82;}.cls-170{fill:#585858;opacity:0.82;}.cls-171{fill:#575757;opacity:0.82;}.cls-172{fill:#565656;opacity:0.82;}.cls-173{fill:#555;opacity:0.82;}.cls-174{fill:#545454;opacity:0.82;}.cls-175{fill:#535353;opacity:0.82;}.cls-176{fill:#525252;opacity:0.82;}.cls-177{fill:#515151;opacity:0.82;}.cls-178{fill:#505050;opacity:0.81;}.cls-179{fill:#4f4f4f;opacity:0.81;}.cls-180{fill:#4e4e4e;opacity:0.81;}.cls-181{fill:#4d4d4d;opacity:0.81;}.cls-182{fill:#4c4c4c;opacity:0.81;}.cls-183{fill:#4b4b4b;opacity:0.81;}.cls-184{fill:#4a4a4a;opacity:0.81;}.cls-185{fill:#494949;opacity:0.81;}.cls-186{fill:#484848;opacity:0.81;}.cls-187{fill:#474747;opacity:0.81;}.cls-188{fill:#464646;opacity:0.8;}.cls-189{fill:#454545;opacity:0.8;}.cls-190{fill:#444;opacity:0.8;}.cls-191{fill:#434343;opacity:0.8;}.cls-192,.cls-193{fill:#424242;}.cls-194{fill:url(#Degradado_sin_nombre_3-2);}.cls-195{opacity:0.12;}.cls-196{fill:#5f2900;}.cls-197,.cls-203{opacity:0.2;}.cls-198{fill:#e88e47;}.cls-199{opacity:0.35;}.cls-200{fill:url(#Degradado_sin_nombre_3-3);}.cls-201{opacity:0.1;}.cls-202{fill:#361700;}.cls-204{fill:#450800;}.cls-205{fill:#b20a00;}.cls-207{opacity:0.36;}.cls-208{fill:#873a00;}.cls-209{fill:#ffa81f;}.cls-210{fill:#f69e63;}.cls-212{fill:#9ad5f0;}.cls-213{fill:url(#Degradado_sin_nombre_4);}</style><linearGradient id="Degradado_sin_nombre_3" x1="57.84" y1="561.85" x2="84.8" y2="561.85" gradientTransform="translate(0 -428)" gradientUnits="userSpaceOnUse"><stop offset="0.08" stop-color="#bdbdbd"/><stop offset="0.13" stop-color="#c2c2c2"/><stop offset="0.37" stop-color="#d7d7d7"/><stop offset="0.53" stop-color="#dfdfdf"/><stop offset="1" stop-color="#cdcdcd"/></linearGradient><linearGradient id="Degradado_sin_nombre_3-2" x1="76.2" y1="583.6" x2="157.93" y2="583.6" xlink:href="#Degradado_sin_nombre_3"/><linearGradient id="Degradado_sin_nombre_3-3" x1="6076.57" y1="1152.77" x2="6119.23" y2="1152.77" gradientTransform="matrix(-0.98, -0.17, -0.17, 0.98, 6376.79, 95.77)" xlink:href="#Degradado_sin_nombre_3"/><linearGradient id="Degradado_sin_nombre_4" x1="48.84" y1="385.88" x2="63.9" y2="415.69" gradientTransform="translate(-39.22 -309.2) rotate(-2.13)" gradientUnits="userSpaceOnUse"><stop offset="0" stop-color="#fff"/><stop offset="1"/></linearGradient></defs><title>Recurso 1</title><g id="Capa_2" data-name="Capa 2"><g id="Layer_1" data-name="Layer 1"><polygon class="cls-1" points="80.84 115.5 57.84 137.1 65.54 152.2 84.84 124.2 80.84 115.5"/><g class="cls-2"><ellipse class="cls-3" cx="130.04" cy="310.1" rx="84" ry="8.7"/><ellipse class="cls-4" cx="130.04" cy="310.1" rx="83.8" ry="8.7"/><ellipse class="cls-5" cx="130.04" cy="310.1" rx="83.6" ry="8.7"/><ellipse class="cls-6" cx="130.04" cy="310.1" rx="83.4" ry="8.6"/><ellipse class="cls-7" cx="130.04" cy="310.1" rx="83.3" ry="8.6"/><ellipse class="cls-8" cx="130.04" cy="310.1" rx="83.1" ry="8.6"/><ellipse class="cls-9" cx="130.04" cy="310.1" rx="82.9" ry="8.6"/><ellipse class="cls-10" cx="130.04" cy="310.1" rx="82.7" ry="8.6"/><ellipse class="cls-11" cx="130.04" cy="310.1" rx="82.5" ry="8.5"/><ellipse class="cls-12" cx="130.04" cy="310.1" rx="82.3" ry="8.5"/><ellipse class="cls-13" cx="130.04" cy="310.1" rx="82.1" ry="8.5"/><ellipse class="cls-14" cx="130.04" cy="310.1" rx="81.9" ry="8.5"/><ellipse class="cls-15" cx="130.04" cy="310.1" rx="81.7" ry="8.5"/><ellipse class="cls-16" cx="130.04" cy="310.1" rx="81.5" ry="8.5"/><ellipse class="cls-17" cx="130.04" cy="310.1" rx="81.3" ry="8.4"/><ellipse class="cls-18" cx="130.04" cy="310.1" rx="81.2" ry="8.4"/><ellipse class="cls-19" cx="130.04" cy="310.1" rx="81" ry="8.4"/><ellipse class="cls-20" cx="130.04" cy="310.1" rx="80.8" ry="8.4"/><ellipse class="cls-21" cx="130.04" cy="310.1" rx="80.6" ry="8.4"/><ellipse class="cls-22" cx="130.04" cy="310.1" rx="80.4" ry="8.3"/><ellipse class="cls-23" cx="130.04" cy="310.1" rx="80.2" ry="8.3"/><ellipse class="cls-24" cx="130.04" cy="310.1" rx="80" ry="8.3"/><ellipse class="cls-25" cx="130.04" cy="310.1" rx="79.8" ry="8.3"/><ellipse class="cls-26" cx="130.04" cy="310.1" rx="79.6" ry="8.3"/><ellipse class="cls-27" cx="130.04" cy="310.1" rx="79.4" ry="8.2"/><ellipse class="cls-28" cx="130.04" cy="310.1" rx="79.2" ry="8.2"/><ellipse class="cls-29" cx="130.04" cy="310.1" rx="79.1" ry="8.2"/><ellipse class="cls-30" cx="130.04" cy="310.1" rx="78.9" ry="8.2"/><ellipse class="cls-31" cx="130.04" cy="310.1" rx="78.7" ry="8.1"/><ellipse class="cls-32" cx="130.04" cy="310.1" rx="78.5" ry="8.1"/><ellipse class="cls-33" cx="130.04" cy="310.1" rx="78.3" ry="8.1"/><ellipse class="cls-34" cx="130.04" cy="310.1" rx="78.1" ry="8.1"/><ellipse class="cls-35" cx="130.04" cy="310.1" rx="77.9" ry="8.1"/><ellipse class="cls-36" cx="130.04" cy="310.1" rx="77.7" ry="8"/><ellipse class="cls-37" cx="130.04" cy="310.1" rx="77.5" ry="8"/><ellipse class="cls-38" cx="130.04" cy="310.1" rx="77.3" ry="8"/><ellipse class="cls-39" cx="130.04" cy="310.1" rx="77.1" ry="8"/><ellipse class="cls-40" cx="130.04" cy="310.1" rx="76.9" ry="8"/><ellipse class="cls-41" cx="130.04" cy="310.1" rx="76.8" ry="8"/><ellipse class="cls-42" cx="130.04" cy="310.1" rx="76.6" ry="7.9"/><ellipse class="cls-43" cx="130.04" cy="310.1" rx="76.4" ry="7.9"/><ellipse class="cls-44" cx="130.04" cy="310.1" rx="76.2" ry="7.9"/><ellipse class="cls-45" cx="130.04" cy="310.1" rx="76" ry="7.9"/><ellipse class="cls-46" cx="130.04" cy="310.1" rx="75.8" ry="7.9"/><ellipse class="cls-47" cx="130.04" cy="310.1" rx="75.6" ry="7.8"/><ellipse class="cls-48" cx="130.04" cy="310.1" rx="75.4" ry="7.8"/><ellipse class="cls-49" cx="130.04" cy="310.1" rx="75.2" ry="7.8"/><ellipse class="cls-50" cx="130.04" cy="310.1" rx="75" ry="7.8"/><ellipse class="cls-51" cx="130.04" cy="310.1" rx="74.8" ry="7.8"/><ellipse class="cls-52" cx="130.04" cy="310.1" rx="74.7" ry="7.7"/><ellipse class="cls-53" cx="130.04" cy="310.1" rx="74.5" ry="7.7"/><ellipse class="cls-54" cx="130.04" cy="310.1" rx="74.3" ry="7.7"/><ellipse class="cls-55" cx="130.04" cy="310.1" rx="74.1" ry="7.7"/><ellipse class="cls-56" cx="130.04" cy="310.1" rx="73.9" ry="7.7"/><ellipse class="cls-57" cx="130.04" cy="310.1" rx="73.7" ry="7.6"/><ellipse class="cls-58" cx="130.04" cy="310.1" rx="73.5" ry="7.6"/><ellipse class="cls-59" cx="130.04" cy="310.1" rx="73.3" ry="7.6"/><ellipse class="cls-60" cx="130.04" cy="310.1" rx="73.1" ry="7.6"/><path class="cls-61" d="M202.94,310.1c0,4.2-32.7,7.6-72.9,7.6s-72.9-3.4-72.9-7.6,32.7-7.6,72.9-7.6S202.94,305.9,202.94,310.1Z"/><ellipse class="cls-62" cx="130.04" cy="310.1" rx="72.7" ry="7.5"/><ellipse class="cls-63" cx="130.04" cy="310.1" rx="72.6" ry="7.5"/><ellipse class="cls-64" cx="130.04" cy="310.1" rx="72.4" ry="7.5"/><ellipse class="cls-65" cx="130.04" cy="310.1" rx="72.2" ry="7.5"/><ellipse class="cls-66" cx="130.04" cy="310.1" rx="72" ry="7.5"/><ellipse class="cls-67" cx="130.04" cy="310.1" rx="71.8" ry="7.4"/><ellipse class="cls-68" cx="130.04" cy="310.1" rx="71.6" ry="7.4"/><ellipse class="cls-69" cx="130.04" cy="310.1" rx="71.4" ry="7.4"/><ellipse class="cls-70" cx="130.04" cy="310.1" rx="71.2" ry="7.4"/><ellipse class="cls-71" cx="130.04" cy="310.1" rx="71" ry="7.4"/><ellipse class="cls-72" cx="130.04" cy="310.1" rx="70.8" ry="7.3"/><ellipse class="cls-73" cx="130.04" cy="310.1" rx="70.6" ry="7.3"/><ellipse class="cls-74" cx="130.04" cy="310.1" rx="70.4" ry="7.3"/><ellipse class="cls-75" cx="130.04" cy="310.1" rx="70.3" ry="7.3"/><ellipse class="cls-76" cx="130.04" cy="310.1" rx="70.1" ry="7.3"/><ellipse class="cls-77" cx="130.04" cy="310.1" rx="69.9" ry="7.2"/><ellipse class="cls-78" cx="130.04" cy="310.1" rx="69.7" ry="7.2"/><ellipse class="cls-79" cx="130.04" cy="310.1" rx="69.5" ry="7.2"/><ellipse class="cls-80" cx="130.04" cy="310.1" rx="69.3" ry="7.2"/><ellipse class="cls-81" cx="130.04" cy="310.1" rx="69.1" ry="7.2"/><path class="cls-82" d="M198.94,310.1c0,4-30.9,7.1-68.9,7.1s-68.9-3.2-68.9-7.1S91.94,303,130,303,198.94,306.1,198.94,310.1Z"/><ellipse class="cls-83" cx="130.04" cy="310.1" rx="68.7" ry="7.1"/><ellipse class="cls-84" cx="130.04" cy="310.1" rx="68.5" ry="7.1"/><ellipse class="cls-85" cx="130.04" cy="310.1" rx="68.3" ry="7.1"/><path class="cls-86" d="M198.24,310.1c0,3.9-30.5,7.1-68.2,7.1s-68.1-3.3-68.1-7.1,30.5-7.1,68.2-7.1S198.24,306.1,198.24,310.1Z"/><path class="cls-87" d="M198,310.1c0,3.9-30.4,7-68,7s-68-3.1-68-7,30.4-7,68-7S198,306.2,198,310.1Z"/><ellipse class="cls-88" cx="130.04" cy="310.1" rx="67.8" ry="7"/><ellipse class="cls-89" cx="130.04" cy="310.1" rx="67.6" ry="7"/><ellipse class="cls-90" cx="130.04" cy="310.1" rx="67.4" ry="7"/><ellipse class="cls-91" cx="130.04" cy="310.1" rx="67.2" ry="7"/><ellipse class="cls-92" cx="130.04" cy="310.1" rx="67" ry="6.9"/><ellipse class="cls-93" cx="130.04" cy="310.1" rx="66.8" ry="6.9"/><ellipse class="cls-94" cx="130.04" cy="310.1" rx="66.6" ry="6.9"/><ellipse class="cls-95" cx="130.04" cy="310.1" rx="66.4" ry="6.9"/><path class="cls-96" d="M196.34,310.1c0,3.8-29.7,6.9-66.2,6.9s-66.2-3.1-66.2-6.9,29.7-6.9,66.2-6.9S196.34,306.3,196.34,310.1Z"/><path class="cls-97" d="M196.14,310.1c0,3.8-29.6,6.8-66.1,6.8s-66.1-3.1-66.1-6.8,29.6-6.9,66.1-6.9S196.14,306.3,196.14,310.1Z"/><ellipse class="cls-98" cx="130.04" cy="310.1" rx="65.9" ry="6.8"/><ellipse class="cls-99" cx="130.04" cy="310.1" rx="65.7" ry="6.8"/><ellipse class="cls-100" cx="130.04" cy="310.1" rx="65.5" ry="6.8"/><ellipse class="cls-101" cx="130.04" cy="310.1" rx="65.3" ry="6.8"/><ellipse class="cls-102" cx="130.04" cy="310.1" rx="65.1" ry="6.8"/><ellipse class="cls-103" cx="130.04" cy="310.1" rx="64.9" ry="6.7"/><ellipse class="cls-104" cx="130.04" cy="310.1" rx="64.7" ry="6.7"/><ellipse class="cls-105" cx="130.04" cy="310.1" rx="64.5" ry="6.7"/><ellipse class="cls-106" cx="130.04" cy="310.1" rx="64.3" ry="6.7"/><path class="cls-107" d="M194.24,310.1c0,3.7-28.7,6.6-64.1,6.6s-64.1-3-64.1-6.6,28.7-6.6,64.1-6.6S194.24,306.4,194.24,310.1Z"/><ellipse class="cls-108" cx="130.04" cy="310.1" rx="63.9" ry="6.6"/><ellipse class="cls-109" cx="130.04" cy="310.1" rx="63.8" ry="6.6"/><path class="cls-110" d="M193.64,310.1c0,3.6-28.5,6.6-63.6,6.6s-63.6-3-63.6-6.6,28.5-6.6,63.6-6.6S193.64,306.4,193.64,310.1Z"/><path class="cls-111" d="M193.44,310.1c0,3.6-28.4,6.6-63.4,6.6s-63.4-2.9-63.4-6.6,28.4-6.6,63.4-6.6S193.44,306.4,193.44,310.1Z"/><path class="cls-112" d="M193.24,310.1c0,3.6-28.3,6.5-63.2,6.5s-63.2-2.9-63.2-6.5,28.3-6.5,63.2-6.5S193.24,306.4,193.24,310.1Z"/><ellipse class="cls-113" cx="130.04" cy="310.1" rx="63" ry="6.5"/><ellipse class="cls-114" cx="130.04" cy="310.1" rx="62.8" ry="6.5"/><ellipse class="cls-115" cx="130.04" cy="310.1" rx="62.6" ry="6.5"/><ellipse class="cls-116" cx="130.04" cy="310.1" rx="62.4" ry="6.5"/><path class="cls-117" d="M192.24,310.1c0,3.6-27.9,6.5-62.2,6.5s-62.2-2.9-62.2-6.5,27.9-6.5,62.2-6.5S192.24,306.5,192.24,310.1Z"/><ellipse class="cls-118" cx="130.04" cy="310.1" rx="62" ry="6.4"/><ellipse class="cls-119" cx="130.04" cy="310.1" rx="61.8" ry="6.4"/><ellipse class="cls-120" cx="130.04" cy="310.1" rx="61.7" ry="6.4"/><path class="cls-121" d="M191.54,310.1c0,3.5-27.5,6.4-61.5,6.4s-61.5-2.9-61.5-6.4,27.5-6.4,61.5-6.4S191.54,306.5,191.54,310.1Z"/><path class="cls-122" d="M191.34,310.1c0,3.5-27.4,6.4-61.3,6.4s-61.3-2.8-61.3-6.4,27.4-6.4,61.3-6.4S191.34,306.5,191.34,310.1Z"/><path class="cls-123" d="M191.14,310.1c0,3.5-27.4,6.3-61.1,6.3s-61.1-2.8-61.1-6.3,27.3-6.3,61.1-6.3S191.14,306.6,191.14,310.1Z"/><ellipse class="cls-124" cx="130.04" cy="310.1" rx="60.9" ry="6.3"/><ellipse class="cls-125" cx="130.04" cy="310.1" rx="60.7" ry="6.3"/><ellipse class="cls-126" cx="130.04" cy="310.1" rx="60.5" ry="6.3"/><ellipse class="cls-127" cx="130.04" cy="310.1" rx="60.3" ry="6.3"/><path class="cls-128" d="M190.14,310.1c0,3.4-26.9,6.2-60.1,6.2s-60.1-2.8-60.1-6.2,26.9-6.2,60.1-6.2S190.14,306.6,190.14,310.1Z"/><ellipse class="cls-129" cx="130.04" cy="310.1" rx="59.9" ry="6.2"/><ellipse class="cls-130" cx="130.04" cy="310.1" rx="59.7" ry="6.2"/><path class="cls-131" d="M189.64,310.1c0,3.4-26.7,6.2-59.6,6.2s-59.6-2.8-59.6-6.2,26.7-6.2,59.6-6.2S189.64,306.6,189.64,310.1Z"/><path class="cls-132" d="M189.44,310.1c0,3.4-26.6,6.1-59.4,6.1s-59.4-2.8-59.4-6.1S97.24,304,130,304,189.44,306.7,189.44,310.1Z"/><path class="cls-133" d="M189.24,310.1c0,3.4-26.5,6.1-59.2,6.1s-59.2-2.7-59.2-6.1S97.34,304,130,304,189.24,306.7,189.24,310.1Z"/><ellipse class="cls-134" cx="130.04" cy="310.1" rx="59" ry="6.1"/><path class="cls-135" d="M188.84,310.1c0,3.4-26.3,6.1-58.8,6.1s-58.8-2.7-58.8-6.1S97.54,304,130,304,188.84,306.7,188.84,310.1Z"/><path class="cls-136" d="M188.64,310.1c0,3.4-26.2,6.1-58.6,6.1s-58.6-2.7-58.6-6.1S97.64,304,130,304,188.64,306.7,188.64,310.1Z"/><path class="cls-137" d="M188.44,310.1c0,3.3-26.1,6-58.4,6s-58.4-2.7-58.4-6,26.2-6,58.4-6S188.44,306.7,188.44,310.1Z"/><path class="cls-138" d="M188.24,310.1c0,3.3-26.1,6-58.2,6s-58.2-2.7-58.2-6,26.1-6,58.2-6S188.24,306.7,188.24,310.1Z"/><ellipse class="cls-139" cx="130.04" cy="310.1" rx="58" ry="6"/><ellipse class="cls-140" cx="130.04" cy="310.1" rx="57.8" ry="6"/><ellipse class="cls-141" cx="130.04" cy="310.1" rx="57.6" ry="6"/><path class="cls-142" d="M187.54,310.1c0,3.3-25.7,6-57.4,6s-57.4-2.7-57.4-6,25.7-6,57.4-6S187.54,306.8,187.54,310.1Z"/><path class="cls-143" d="M187.34,310.1c0,3.3-25.6,5.9-57.3,5.9s-57.3-2.7-57.3-5.9,25.6-5.9,57.3-5.9S187.34,306.8,187.34,310.1Z"/><ellipse class="cls-144" cx="130.04" cy="310.1" rx="57.1" ry="5.9"/><path class="cls-145" d="M186.94,310.1c0,3.3-25.5,5.9-56.9,5.9s-56.9-2.6-56.9-5.9,25.5-5.9,56.9-5.9S186.94,306.8,186.94,310.1Z"/><path class="cls-146" d="M186.74,310.1c0,3.3-25.4,5.9-56.7,5.9s-56.7-2.6-56.7-5.9,25.4-5.9,56.7-5.9S186.74,306.8,186.74,310.1Z"/><path class="cls-147" d="M186.54,310.1c0,3.2-25.3,5.9-56.5,5.9s-56.5-2.6-56.5-5.9,25.3-5.9,56.5-5.9S186.54,306.8,186.54,310.1Z"/><path class="cls-148" d="M186.34,310.1c0,3.2-25.2,5.8-56.3,5.8s-56.3-2.6-56.3-5.8,25.2-5.8,56.3-5.8S186.34,306.8,186.34,310.1Z"/><ellipse class="cls-149" cx="130.04" cy="310.1" rx="56.1" ry="5.8"/><ellipse class="cls-150" cx="130.04" cy="310.1" rx="55.9" ry="5.8"/><ellipse class="cls-151" cx="130.04" cy="310.1" rx="55.7" ry="5.8"/><path class="cls-152" d="M185.54,310.1c0,3.2-24.9,5.8-55.5,5.8s-55.5-2.6-55.5-5.8,24.9-5.8,55.5-5.8S185.54,306.9,185.54,310.1Z"/><path class="cls-153" d="M185.44,310.1c0,3.2-24.8,5.7-55.3,5.7s-55.3-2.6-55.3-5.7,24.8-5.7,55.3-5.7S185.44,306.9,185.44,310.1Z"/><ellipse class="cls-154" cx="130.04" cy="310.1" rx="55.2" ry="5.7"/><ellipse class="cls-155" cx="130.04" cy="310.1" rx="55" ry="5.7"/><path class="cls-156" d="M184.84,310.1c0,3.1-24.5,5.7-54.8,5.7s-54.8-2.5-54.8-5.7,24.5-5.7,54.8-5.7S184.84,306.9,184.84,310.1Z"/><path class="cls-157" d="M184.64,310.1c0,3.1-24.4,5.7-54.6,5.7s-54.6-2.5-54.6-5.7,24.4-5.7,54.6-5.7S184.64,306.9,184.64,310.1Z"/><path class="cls-158" d="M184.44,310.1c0,3.1-24.4,5.6-54.4,5.6s-54.4-2.5-54.4-5.6,24.3-5.6,54.4-5.6S184.44,306.9,184.44,310.1Z"/><ellipse class="cls-159" cx="130.04" cy="310.1" rx="54.2" ry="5.6"/><path class="cls-160" d="M184,310.1c0,3.1-24.2,5.6-54,5.6s-54-2.5-54-5.6,24.2-5.6,54-5.6S184,306.9,184,310.1Z"/><path class="cls-161" d="M183.84,310.1c0,3.1-24.1,5.6-53.8,5.6s-53.8-2.5-53.8-5.6,24.1-5.6,53.8-5.6S183.84,307,183.84,310.1Z"/><path class="cls-162" d="M183.64,310.1c0,3.1-24,5.6-53.6,5.6s-53.6-2.5-53.6-5.6,24-5.6,53.6-5.6S183.64,307,183.64,310.1Z"/><path class="cls-163" d="M183.44,310.1c0,3.1-23.9,5.5-53.4,5.5s-53.4-2.5-53.4-5.5,23.9-5.5,53.4-5.5S183.44,307,183.44,310.1Z"/><ellipse class="cls-164" cx="130.04" cy="310.1" rx="53.2" ry="5.5"/><ellipse class="cls-165" cx="130.04" cy="310.1" rx="53.1" ry="5.5"/><path class="cls-166" d="M182.94,310.1c0,3-23.7,5.5-52.9,5.5s-52.9-2.5-52.9-5.5,23.7-5.5,52.9-5.5S182.94,307,182.94,310.1Z"/><path class="cls-167" d="M182.74,310.1c0,3-23.6,5.5-52.7,5.5s-52.7-2.4-52.7-5.5,23.6-5.5,52.7-5.5S182.74,307,182.74,310.1Z"/><path class="cls-168" d="M182.54,310.1c0,3-23.5,5.4-52.5,5.4s-52.5-2.4-52.5-5.4,23.5-5.4,52.5-5.4S182.54,307,182.54,310.1Z"/><path class="cls-169" d="M182.34,310.1c0,3-23.4,5.4-52.3,5.4s-52.3-2.4-52.3-5.4,23.4-5.4,52.3-5.4S182.34,307.1,182.34,310.1Z"/><path class="cls-170" d="M182.14,310.1c0,3-23.3,5.4-52.1,5.4s-52.1-2.4-52.1-5.4,23.3-5.4,52.1-5.4S182.14,307.1,182.14,310.1Z"/><path class="cls-171" d="M181.94,310.1c0,3-23.2,5.4-51.9,5.4s-51.9-2.4-51.9-5.4,23.2-5.4,51.9-5.4S181.94,307.1,181.94,310.1Z"/><path class="cls-172" d="M181.74,310.1c0,3-23.2,5.4-51.7,5.4s-51.7-2.4-51.7-5.4,23.2-5.4,51.7-5.4S181.74,307.1,181.74,310.1Z"/><path class="cls-173" d="M181.54,310.1c0,3-23.1,5.3-51.5,5.3s-51.5-2.4-51.5-5.3,23.1-5.3,51.5-5.3S181.54,307.1,181.54,310.1Z"/><path class="cls-174" d="M181.34,310.1c0,2.9-23,5.3-51.3,5.3s-51.3-2.4-51.3-5.3,23-5.3,51.3-5.3S181.34,307.1,181.34,310.1Z"/><ellipse class="cls-175" cx="130.04" cy="310.1" rx="51.1" ry="5.3"/><ellipse class="cls-176" cx="130.04" cy="310.1" rx="50.9" ry="5.3"/><path class="cls-177" d="M180.84,310.1c0,2.9-22.7,5.3-50.8,5.3s-50.8-2.4-50.8-5.3,22.7-5.3,50.8-5.3S180.84,307.1,180.84,310.1Z"/><path class="cls-178" d="M180.64,310.1c0,2.9-22.6,5.2-50.6,5.2s-50.6-2.3-50.6-5.2,22.6-5.2,50.6-5.2S180.64,307.2,180.64,310.1Z"/><path class="cls-179" d="M180.44,310.1c0,2.9-22.6,5.2-50.4,5.2s-50.4-2.3-50.4-5.2,22.6-5.2,50.4-5.2S180.44,307.2,180.44,310.1Z"/><path class="cls-180" d="M180.24,310.1c0,2.9-22.5,5.2-50.2,5.2s-50.2-2.3-50.2-5.2,22.5-5.2,50.2-5.2S180.24,307.2,180.24,310.1Z"/><path class="cls-181" d="M180,310.1c0,2.9-22.4,5.2-50,5.2s-50-2.3-50-5.2,22.4-5.2,50-5.2S180,307.2,180,310.1Z"/><path class="cls-182" d="M179.84,310.1c0,2.9-22.3,5.2-49.8,5.2s-49.8-2.3-49.8-5.2,22.3-5.2,49.8-5.2S179.84,307.2,179.84,310.1Z"/><path class="cls-183" d="M179.64,310.1c0,2.8-22.2,5.1-49.6,5.1s-49.6-2.3-49.6-5.1,22.2-5.1,49.6-5.1S179.64,307.2,179.64,310.1Z"/><path class="cls-184" d="M179.44,310.1c0,2.8-22.1,5.1-49.4,5.1s-49.4-2.3-49.4-5.1,22.1-5.1,49.4-5.1S179.44,307.2,179.44,310.1Z"/><path class="cls-185" d="M179.24,310.1c0,2.8-22,5.1-49.2,5.1s-49.2-2.3-49.2-5.1,22-5.1,49.2-5.1S179.24,307.2,179.24,310.1Z"/><path class="cls-186" d="M179,310.1c0,2.8-22,5.1-49,5.1s-49-2.3-49-5.1,22-5.1,49-5.1S179,307.2,179,310.1Z"/><path class="cls-187" d="M178.94,310.1c0,2.8-21.9,5.1-48.8,5.1s-48.8-2.3-48.8-5.1,21.9-5.1,48.8-5.1S178.94,307.3,178.94,310.1Z"/><path class="cls-188" d="M178.74,310.1c0,2.8-21.8,5-48.7,5s-48.7-2.3-48.7-5,21.8-5,48.7-5S178.74,307.3,178.74,310.1Z"/><path class="cls-189" d="M178.54,310.1c0,2.8-21.7,5-48.5,5s-48.5-2.3-48.5-5,21.7-5,48.5-5S178.54,307.3,178.54,310.1Z"/><ellipse class="cls-190" cx="130.04" cy="310.1" rx="48.3" ry="5"/><path class="cls-191" d="M178.14,310.1c0,2.8-21.5,5-48.1,5s-48.1-2.2-48.1-5,21.5-5,48.1-5S178.14,307.3,178.14,310.1Z"/><path class="cls-192" d="M177.94,310.1c0,2.7-21.4,5-47.9,5s-47.9-2.2-47.9-5,21.4-5,47.9-5S177.94,307.3,177.94,310.1Z"/></g><path class="cls-193" d="M104,220.4l14.6,75.4-10.2-.5-6.3-38.4c-3.3-15.8-17.1-43-17.1-43Z"/><path class="cls-193" d="M128.14,221.3,139,298.8l9.6-3.5-5.1-38.5c-1.4-16.1,0-39.7,0-39.7Z"/><path class="cls-194" d="M79.44,109.6c-1.3,13.9-3.6,80.9-3.2,81.6l72,10.4c-.1-2.7,10.8-82.7,9.6-87.3l-37.5,10.5Z"/><polygon class="cls-195" points="95.44 64.1 117.14 64.9 117.24 59 94.24 59.8 95.44 64.1"/><polygon class="cls-196" points="96.24 62.5 117.94 63.3 117.94 57.4 94.94 58.2 96.24 62.5"/><polygon class="cls-195" points="146.64 71 127.14 64.8 128.84 59.6 149.04 67.6 146.64 71"/><polygon class="cls-196" points="145.64 69.4 126.24 63.2 127.84 58 148.04 66 145.64 69.4"/><path class="cls-193" d="M76.24,191.2s-.2,18,5.8,23.1,40.7,18.5,60.7,4.4c4.3-3.7,6.1-12.9,5.6-18.4Z"/><path class="cls-197" d="M111.94,74.2c-.3,3.1-2.2,5.4-4.1,5.2s-3.2-2.9-2.8-5.9,2.2-5.4,4.1-5.2S112.24,71.1,111.94,74.2Z"/><ellipse class="cls-197" cx="131.53" cy="75.9" rx="5.6" ry="3.3" transform="translate(41.71 198.35) rotate(-83.73)"/><path d="M110.74,73.1c-.3,2.6-1.5,4.5-2.7,4.4s-2-2.3-1.7-4.9,1.5-4.5,2.7-4.4S111,70.6,110.74,73.1Z"/><path d="M133.84,75.3c-.3,2.6-1.5,4.5-2.7,4.4s-1.9-2.3-1.7-4.9,1.5-4.5,2.7-4.4S134.14,72.7,133.84,75.3Z"/><path class="cls-196" d="M109.24,293.8l-15.3,4.8s-12.1-1.9-14.7,4.9c-1.7,4.5-2.1,6.1-2.1,6.1,12,0,43.1-.2,43.1-.2.2-3.9-1.1-14.5-1.1-14.5Z"/><path class="cls-196" d="M148.44,293.8l15.3,4.8s12.1-1.9,14.7,4.9c1.6,4.5,2.1,6.1,2.1,6.1-12,0-43.1-.2-43.1-.2-.2-3.9,1.1-14.5,1.1-14.5Z"/><polygon class="cls-198" points="135.74 195 140.34 207.8 142.94 212.8 169.24 203.4 175.44 197.7 167.84 183.6 167.84 183.6 167.84 183.6 166.94 182 164.04 182.4 150.64 177.4 150.04 184.7 135.74 195"/><path class="cls-199" d="M167.84,183.6h0l-.9-1.6-2.9.4-5.4-1.6c.9,2.5,6.3,17,9.3,23l1.3-.5,3.4-3.1c.9-1.1,1.7-2.2,2.5-3.2Z"/><path class="cls-200" d="M157,121.9c-.1,1.6-.2,4-.5,6.9,25.9,19.1,18,34.7,3.9,50.6,0,0,7,19.1,10.1,24.6C219.24,167.8,168.34,129.6,157,121.9Z"/><path class="cls-201" d="M161.54,56.2c0-6.9-.5-12.3-1.4-15.8-4.3-.2-8.5-.3-12.8-.5-.7,0-1.4-.1-2.2-.1-14.2-.6-28.5-1.2-42.7-1.7-1.4,0-2.7-.1-4.1-.2L83,37.3a118.09,118.09,0,0,0-1.8,14.3c-.5,6-.8,13.1-1.2,21,2.2-2.6,3.3-9.9,3.6-11.4,1.1-5.6,2-11.3,5.8-15.8,7.8-9.1,13.3-.9,20.3,4.2a38.75,38.75,0,0,0,24.1,7.7,41.5,41.5,0,0,0,12.6-2.5c2.3-.8,6.4-4,9-3.2,3.6,1.1,3.5,7.7,3.8,10.6.2,2-.6,9.4,1.3,10.6.2.1.3.2.5.3C161.44,66.9,161.64,61.2,161.54,56.2Z"/><path class="cls-196" d="M167.74,49.8a44.47,44.47,0,0,1-1.6,12c-.7,2.6-2.1,8.4-4.7,9.7-1.4-2.6-.3-5.9-.6-8.7s-.5-6.2-1.8-8.8c-2.8-5.4-8.3-9.3-6-15.9,1.7-4.8,6.9-3.8,10.2-.9C166.64,40.3,167.64,45.5,167.74,49.8Z"/><path class="cls-202" d="M166.54,42.3a11.58,11.58,0,0,0-3.3-5.1,9.53,9.53,0,0,0-3-1.9c-3.3,2-5.8,5.9-6.9,9.7,1.4,3.1,4,5.8,5.7,9,1.4,2.6,1.6,5.9,1.8,8.8.2,2.7-.8,6,.5,8.5,2.9-4.3,2.3-13,1.3-16.9-.7-2.7-1.9-4.8-.7-7.6A10.54,10.54,0,0,1,166.54,42.3Z"/><path class="cls-196" d="M94.44,21.2a13.47,13.47,0,0,0-1.3,11.7c1.6,4,5.8,4.9,9.4,6.5a50.55,50.55,0,0,1,10.7,6.4c3.5,2.8,7,5.8,11.4,7.1,6.6,2,13.8,1.8,20.5.5,16.9-3.3,28.1-28.5,17.5-43.5,1.2,8.2-3.9,9.7-9.7,13.4,5.9-6.6,1.4-19.5-6.9-23.3,10.3,23-16.3,18.5-29.3,16.9C109.34,16.1,99,13.9,94.44,21.2Z"/><path class="cls-196" d="M85.34,25.9a12.09,12.09,0,0,1,6.5,1.3,33.6,33.6,0,0,1,6.9,4c1.3,1.1,4.4,4.8,3.9,6.8-.4,1.5-1.8.8-3.1.7a16.85,16.85,0,0,0-7.4,1c-7.4,3.6-9.4,13.4-10.6,20.7-.3,1.6-.2,3.8-1.4,5.1-3.2-2.3-3.1-9.6-3.8-13.2-1.4-7.4-1.7-17.6,3.5-23.7A8.07,8.07,0,0,1,85.34,25.9Z"/><path class="cls-202" d="M162.54,10.1a14.17,14.17,0,0,1,.2,2.8c.7,2.9,1.5,5.7,1.1,9A36.77,36.77,0,0,1,160,33.8c-2.6,4.8-6.1,9.9-11.4,12.1-6,2.5-11.2,3.7-17.6,2.2-6.1-1.4-11.1-4.6-16.8-7.1s-11-7.1-17.3-6.6a11.08,11.08,0,0,0-2.5.5c2,2.4,5.3,3.3,8.2,4.6a50.55,50.55,0,0,1,10.7,6.4c3.5,2.8,7,5.8,11.4,7.1,6.6,2,13.8,1.8,20.5.5C161.94,50.2,176.44,23.1,162.54,10.1Z"/><path class="cls-202" d="M96.84,34.4c-5.1.4-11.5,4.2-13.8,8.9-3.3,6.6-2.1,13.8-2.1,20.9.4-1.2.4-2.7.7-3.8,1.2-7.2,3.2-17.1,10.6-20.7,2.1-1,4.9-1.1,7.4-1,1.3.1,2.7.8,3.1-.7a4.69,4.69,0,0,0-.8-3A14.58,14.58,0,0,0,96.84,34.4Z"/><path class="cls-203" d="M88.84,32.1c3.1-.2,4.4-2.8,1.2-4.2-3.5-1.5-7.3.6-9.1,3.6s-1.1,5.2-1.6,8.2C79.94,34.6,84.24,32.4,88.84,32.1Z"/><path class="cls-203" d="M137.34,35.1c-6.6,3-11.4,1.1-17.6-1.6-2.7-1.2-5.4-2-8.1-3.3-5.2-2.3-10.4-4.9-16.1-2.3-.2-3.2,1.7-6.3,4.2-8.2a11.37,11.37,0,0,1,7.4-2.2c4.2.2,8.9,3.6,12.8,1.6a9.11,9.11,0,0,1-7.3,2.6c-2.3-.2-6-1.5-7.4,1,5.2-2.6,13.7,4.7,18.1,6.5,6.7,2.8,14.3,5.3,20.5-.1C141.54,31.8,140.54,33.7,137.34,35.1Z"/><path class="cls-204" d="M90.64,81.7s32,18,57.7,3.2c.8,15.8-11,33.7-31.7,31.6C98.94,114.7,89.74,103,90.64,81.7Z"/><path class="cls-205" d="M99.94,109.9c4.2,3.7,9.8,5.9,16.7,6.6a28.08,28.08,0,0,0,18.1-4c-4.8-5.5-6.3-7.4-16.3-7.5C105.24,105,103.44,108.1,99.94,109.9Z"/><path class="cls-3" d="M90.64,81.7a33.79,33.79,0,0,0,0,4.5c5.8,3.7,30.7,18.1,57.3,5.3a28.77,28.77,0,0,0,.4-6.5C122.64,99.7,90.64,81.7,90.64,81.7Z"/><path class="cls-206" d="M90.64,81.7a30.85,30.85,0,0,0,0,4.3c3-3.4,12.3,4.3,29.3,5.8,16.5,1.5,26.3-5.8,28.1-.5a34.41,34.41,0,0,0,.4-6.4C122.64,99.7,90.64,81.7,90.64,81.7Z"/><path class="cls-3" d="M99.44,109.4c4.3,4,10,6.4,17.2,7.1a27.43,27.43,0,0,0,20.6-5.8C121.44,116.5,103.34,108.7,99.44,109.4Z"/><polygon class="cls-199" points="114.94 177.7 119.74 185.9 133.54 171.1 126.44 135.3 125.64 125.4 114.94 177.7"/><polygon class="cls-196" points="111.54 129.7 102.84 167.2 116.44 183.5 130.84 169 124.44 130.1 111.54 129.7"/><polygon class="cls-196" points="110.54 121.5 109.94 129.8 125.74 131.8 126.24 121.9 110.54 121.5"/><polygon class="cls-207" points="125.04 133.4 124.44 130.1 111.54 129.7 111.04 131.9 125.04 133.4"/><polygon class="cls-196" points="109.24 122.9 108.74 130.6 127.24 132.6 127.74 123.5 109.24 122.9"/><path class="cls-208" d="M127.74,150.2l-17.6-14.9-2.2,9.5,21.5,16Zm-21.5,2.6-1.2,5.3,19.3,17.5,4.9-4.9Z"/><path class="cls-209" d="M124.64,145.7a2.2,2.2,0,0,1-2.1,2.2l-15.3-.8a2.24,2.24,0,0,1-1.9-2.4h0a2.2,2.2,0,0,1,2.1-2.2l15.3.8a2.17,2.17,0,0,1,1.9,2.4Z"/><path class="cls-3" d="M113.84,145.2c0,.8-.4,1.4-.7,1.4l-4.7-.3c-.3,0-.6-.7-.5-1.5h0c0-.8.4-1.4.7-1.4l4.7.3c.3,0,.5.7.5,1.5Z"/><path class="cls-210" d="M19.34,148.2s.3,23,35.8,15.9c33.8-6.8,19.2-50.1-2.9-46.9Z"/><path class="cls-201" d="M61.64,146.8c-2.9-3.9-19.3-5.2-35-5.5l-7.3,6.9a21.21,21.21,0,0,0,10,14.3c3.7-.6,11.8-2.6,12-8.8C52.54,156.6,67.34,154.7,61.64,146.8Z"/><path class="cls-193" d="M62.84,146.1a4.49,4.49,0,0,1-4.3,4.7l-39.1,1.5a4.57,4.57,0,0,1-4.7-4.4l-2.8-73.1a4.49,4.49,0,0,1,4.3-4.7l39.1-1.5A4.49,4.49,0,0,1,60,72.9Z"/><circle class="cls-211" cx="38.64" cy="144" r="4.5"/><path class="cls-193" d="M42.24,143.9a3.67,3.67,0,0,0-3.8-3.5,3.72,3.72,0,0,0-3.5,3.7,3.65,3.65,0,0,0,3.7,3.5A3.55,3.55,0,0,0,42.24,143.9Z"/><path class="cls-212" d="M59.84,135a2,2,0,0,1-2,2.1l-39,1.4a2,2,0,0,1-2.1-2l-2.1-57.6a2,2,0,0,1,2-2.1l39-1.4a2,2,0,0,1,2.1,2Z"/><path class="cls-211" d="M39.74,72.7a1,1,0,0,1-1,1.1l-5.4.2a1,1,0,0,1-1.1-1h0a1,1,0,0,1,1-1.1l5.4-.2a1,1,0,0,1,1.1,1Z"/><path class="cls-213" d="M58.34,94.2l-.6-16.8a2.09,2.09,0,0,0-2.1-2l-39,1.4a2.09,2.09,0,0,0-2,2.1l1.5,40.4C24.74,114.2,42.94,103.2,58.34,94.2Z"/><path class="cls-201" d="M36.34,137.9c-.2-4.3-2.7-8.6-6.7-9.1,9.7-17.6-10.8-15.6-10.8-15.6l5.1,25.2Z"/><path class="cls-210" d="M14.24,148.5,29,144.8c4.5-1.5,7.4-13.8.1-15.4s-19.9,2.8-22.5,3.8S-1.06,145.8,14.24,148.5Z"/><path class="cls-210" d="M19.24,161.3a77,77,0,0,0,13.6.9c4.2-.1,10-9.7,4.2-13s-17.7-3-20.2-2.9S6.44,158.7,19.24,161.3Z"/><path class="cls-210" d="M10,132.5l14.1-3.6c4.3-1.4,7-13.7.1-15.3s-19,2.3-21.4,3.6S-4.56,129.7,10,132.5Z"/><path class="cls-210" d="M75.14,140.4c-6.8-22.5,10.5-30.2-7.9-32.9-15-2.2-9.7,25-3.5,29.7"/></g></g></svg>