<svg xmlns="http://www.w3.org/2000/svg" viewBox="0 0 267 267"><defs><style>.cls-1{fill:#111;}.cls-2{fill:#d80027;}.cls-3{fill:#ffd0a1;}</style></defs><title>SeguroAuto</title><g id="Capa_2" data-name="Capa 2"><g id="Capa_1-2" data-name="Capa 1"><circle class="cls-1" cx="133.5" cy="133.5" r="133.5"/><path class="cls-2" d="M106.6,170.62v-12.7h35.08a39.52,39.52,0,0,1,10.47-1.22,37.78,37.78,0,0,1,10,1.21c4.56,1.24,8.44,2.3,11.86,3.25v-3.25h.28a7.49,7.49,0,0,0,7.36-7.45v-3.62a33,33,0,0,0-3.57-13.74l-.73-1.32a12.34,12.34,0,0,0-3.89-4l-9.08-22.1a16.14,16.14,0,0,0-10.77-8.93,14.41,14.41,0,0,1-3.16,3.09,38.65,38.65,0,0,1-9,4.35h9.16a8.05,8.05,0,0,1,6.51,4.36L164,125.2H102.67L109,109.88a34.68,34.68,0,0,1-4-.78l-3.7-1-8.13,19.79a11.85,11.85,0,0,0-3.65,4L89,133a35,35,0,0,0-3.37,13.81l0,3.68A7.49,7.49,0,0,0,93,157.92h-.05v8.44a28.38,28.38,0,0,1,9.62,4.26h4.06Zm-9-30.79a4.33,4.33,0,1,1-4.33,4.33A4.33,4.33,0,0,1,97.56,139.82Zm75.74,4.33a4.33,4.33,0,1,1-4.33-4.33A4.33,4.33,0,0,1,173.3,144.15Zm-28,4.49h-23a3.91,3.91,0,1,1,0-7.81h23a3.91,3.91,0,1,1,0,7.81Z"/><path class="cls-3" d="M107,101.61a31,31,0,0,0,8.08,1,53.6,53.6,0,0,0,19.37-4.06c7.81-3.16,15.29-4.9,13.36-10.29-.42-1.17-2.19-1.56-4.52-1.56-4.73,0-11.7,1.61-14,1.61-1.16,0-1.16-.4.84-1.6,4-2.42,9.74-3.78,15.92-3.78a40.64,40.64,0,0,1,22.73,6.73c3.72,2.56,6.65,3.52,8.82,3.52A4.53,4.53,0,0,0,181,85.43c-5.26-5.39-24.65-21.19-35.82-23.88a21.12,21.12,0,0,0-4.86-.48c-13.16,0-36.52,7.41-42.26,7.41-3.13,0-8.59-1.67-13.48-3.42V95.33C87.06,96.1,95.43,98.46,107,101.61Z"/><path class="cls-3" d="M126.89,205.93c13.16,0,36.35-7.41,42.1-7.41,3.13,0,8.43,1.67,13.31,3.42V171.67c-2.44-.77-10.64-3.14-22.17-6.28a30.4,30.4,0,0,0-8-1,53.38,53.38,0,0,0-19.33,4.06c-7.81,3.16-15.27,4.9-13.34,10.29.42,1.17,2.2,1.56,4.53,1.56,4.73,0,11.7-1.61,14-1.61,1.16,0,1.16.4-.83,1.6-4,2.42-9.74,3.78-15.92,3.78a40.63,40.63,0,0,1-22.73-6.73c-3.72-2.56-6.65-3.52-8.82-3.52a4.53,4.53,0,0,0-3.51,7.76c5.26,5.39,24.65,21.19,35.82,23.88A21.13,21.13,0,0,0,126.89,205.93Z"/></g></g></svg>