<svg xmlns="http://www.w3.org/2000/svg" viewBox="0 0 266 266"><defs><style>.cls-1{fill:#111;}.cls-2{fill:#d80027;}</style></defs><title>SeguroVida</title><g id="Capa_2" data-name="Capa 2"><g id="Capa_1-2" data-name="Capa 1"><circle class="cls-1" cx="133" cy="133" r="133"/><g id="_Grupo_" data-name="&lt;Grupo&gt;"><polygon id="_Trazado_" data-name="&lt;Trazado&gt;" class="cls-2" points="118.57 167.42 118.57 171.34 129.25 169.15 118.57 167.42"/><polygon id="_Trazado_2" data-name="&lt;Trazado&gt;" class="cls-2" points="131.64 163.51 131.64 161.31 122.97 162.11 131.64 163.51"/><path id="_Trazado_3" data-name="&lt;Trazado&gt;" class="cls-2" d="M118.57,177.32v1.21a6.53,6.53,0,1,0,13.07,0v-3.81C118.07,177.52,119.09,177.34,118.57,177.32Z"/><circle id="_Trazado_4" data-name="&lt;Trazado&gt;" class="cls-2" cx="133.05" cy="75.29" r="11.29"/><path id="_Trazado_5" data-name="&lt;Trazado&gt;" class="cls-2" d="M130,130.09a5.46,5.46,0,0,0,6.91,3.39l-3.52-10.31h0A5.45,5.45,0,0,0,130,130.09Z"/><path id="_Trazado_6" data-name="&lt;Trazado&gt;" class="cls-2" d="M160.68,121.33l0-9.88,0-8.45A12.91,12.91,0,0,0,147.7,90.17H118.41A12.91,12.91,0,0,0,105.52,103l-.2,40a5.44,5.44,0,0,0,5.12,5.46V199a3,3,0,0,0,5.95,0c0-3.79,0-96,0-96h0a1.14,1.14,0,0,1,2.28.06l-.11,53.43c13.77-1.27,12.77-1.19,13.07-1.18V143.81a1.45,1.45,0,0,1,1.45-1.45,1.42,1.42,0,0,1,1.42,1.42c0,8.46,0,51.69,0,51.69a6.53,6.53,0,0,0,13.07,0V136.14l-8.7,3a11.39,11.39,0,0,1-7.36-21.56l18.27-6.24,0,5,4,11.47h0l3.27-1.12h0A5.47,5.47,0,0,0,160.68,121.33Z"/></g></g></g></svg>