<svg xmlns="http://www.w3.org/2000/svg" viewBox="0 0 266 266"><defs><style>.cls-1{fill:#111;}.cls-2{fill:#ffd0a1;}.cls-3{fill:#d80027;}</style></defs><title>SeguroGMM</title><g id="Capa_2" data-name="Capa 2"><g id="Capa_1-2" data-name="Capa 1"><circle class="cls-1" cx="133" cy="133" r="133"/><path class="cls-2" d="M191.07,105.5c-1,3.85-2.42,11.33-2.95,15.3a.43.43,0,0,0,.09.12,11.16,11.16,0,0,1,2.14,1,9.3,9.3,0,0,1,1.52,1.15c0-.43,0-.84,0-1.27a150.59,150.59,0,0,1,1.86-16.29,27.39,27.39,0,0,1,.9-4A5.41,5.41,0,0,0,191.07,105.5Z"/><path class="cls-3" d="M165.1,127a31.88,31.88,0,0,0,6.89-18c.22-4.19.19-8.44.19-12.57V77.89c0-3.6-2.2-6.05-5.9-6.55l-1.58-.19a58.85,58.85,0,0,1-6.05-.93c-7-1.55-13.71-4.72-21.19-9.93a7.47,7.47,0,0,0-4.41-1.74,7.29,7.29,0,0,0-4.37,1.74c-10,6.92-19,10.39-28.3,11-2.45.12-6.52,1.15-6.52,6.92l0,9.31c0,6.27,0,12.57,0,18.83a36.76,36.76,0,0,0,1,8.07c1.4,6.27,4.72,12,10.15,17.53,6.64,6.73,15,11.95,25.78,16a6.73,6.73,0,0,0,2.23.34h0a6.68,6.68,0,0,0,2.85-.62l2.73-1.18c2.23-1,4.5-2,6.8-3.1C153.78,138.92,160.26,133.55,165.1,127ZM141,135c-2,1-4.16,1.92-6.24,2.82-.59.25-1.18.5-1.8.78V104.23H103.26c0-5.59,0-11.17,0-16.72l0-7c9.9-1,19.45-4.78,29.73-11.7v35.5h29.69c0,1.46,0,2.95-.12,4.37-.19,4.41-1.83,8.53-5,12.75A46.51,46.51,0,0,1,141,135Z"/><path class="cls-2" d="M184.25,119.81l.25-1.89c.37-2.79,2-8,2.61-10.92a5.29,5.29,0,0,0-3.54,4c-.62,2.39-2.33,7.48-2.73,10.05a11.51,11.51,0,0,1,3.38-.68A3,3,0,0,1,184.25,119.81Z"/><path class="cls-2" d="M61.16,143.08a22.39,22.39,0,0,0,6.33,12.32l22.65,27.27.43,12.57a2.06,2.06,0,0,0,2,2l23.83.12a2.06,2.06,0,0,0,2-2l.84-15.23a33.37,33.37,0,0,0,.25-4.47h0a24.67,24.67,0,0,0-.12-2.61c-1.12-4.75-2.82-14-15.48-23.15a23.36,23.36,0,0,1-3.88-3.75L86,128.06a5.57,5.57,0,0,0-7.6-1.68,5.66,5.66,0,0,0-2,7.57l13.56,22.12a1.49,1.49,0,0,1-2.51,1.61l-.56-.84s-10.24-14-15.36-25.1a17,17,0,0,1-1.58-6.27c0-.34,0-.81-.06-1.15A145.93,145.93,0,0,0,68,107.12c-.25-1.4-1-6.64-2.42-8.32A4.62,4.62,0,0,0,59,98.4a5.62,5.62,0,0,0-1.92,5L61,141.65Z"/><path class="cls-2" d="M207,98.43a4.62,4.62,0,0,0-6.64.4c-1.49,1.68-2.2,6.92-2.42,8.32a140.28,140.28,0,0,0-1.8,17.22c0,.34,0,.81-.06,1.15a17,17,0,0,1-1.58,6.27c-5.09,11.08-15.36,25.1-15.36,25.1l-.56.84a1.49,1.49,0,0,1-2.51-1.61L189.65,134a5.67,5.67,0,0,0-2-7.57,5.51,5.51,0,0,0-7.6,1.68l-14.09,18.12A23.36,23.36,0,0,1,162,150c-12.69,9.12-14.37,18.4-15.48,23.15,0,0-.09,1.05-.12,2.61h0a33.64,33.64,0,0,0,.25,4.47l.84,15.23a2,2,0,0,0,2,2l23.83-.12a2,2,0,0,0,2-2l.43-12.57,22.65-27.27a22.49,22.49,0,0,0,6.33-12.32l.22-1.4L209,103.46A5.7,5.7,0,0,0,207,98.43Z"/><path class="cls-2" d="M71.3,101.53a33.41,33.41,0,0,1,.9,4,135.76,135.76,0,0,1,1.86,16.29c0,.43,0,.84,0,1.27a11.47,11.47,0,0,1,1.52-1.15,10.24,10.24,0,0,1,2.14-1,.43.43,0,0,1,.09-.12c-.53-3.94-1.92-11.42-2.95-15.3A5.31,5.31,0,0,0,71.3,101.53Z"/><path class="cls-2" d="M78.88,107c.62,2.89,2.23,8.13,2.61,10.92l.25,1.89a3.37,3.37,0,0,1,0,.56,10.59,10.59,0,0,1,3.38.68c-.37-2.58-2.08-7.66-2.73-10.05A5.28,5.28,0,0,0,78.88,107Z"/></g></g></svg>