<svg xmlns="http://www.w3.org/2000/svg" viewBox="0 0 266 266"><defs><style>.cls-1{fill:#111;}.cls-2{fill:#d80027;}.cls-3{fill:#ffd0a1;}</style></defs><title>SeguroCasa</title><g id="Capa_2" data-name="Capa 2"><g id="Capa_1-2" data-name="Capa 1"><circle class="cls-1" cx="133" cy="133" r="133"/><path class="cls-2" d="M110.72,145.87a58.61,58.61,0,0,1,10.28.93v-10h24.23v17.78a27,27,0,0,1,6.89,3.6c3.7,2.69,5.74,6.22,5.86,10.1a37.87,37.87,0,0,0,12.78-5.58c1.35-.93,3-1.74,3.93-2.44V132.63L133,86,90.58,132.91v16.75c2.85-.72,5.45-1.5,8.46-2.32A44.62,44.62,0,0,1,110.72,145.87Z"/><polygon class="cls-2" points="133.19 74.68 180.32 127.34 191.07 127.34 133.09 62.65 109.12 89.06 109.12 78.4 91.53 78.4 91.53 108.48 74.63 127.34 85.53 127.34 133.19 74.68"/><path class="cls-3" d="M185.76,164.78c-2.61,0-6.12,1.16-10.59,4.23a48.79,48.79,0,0,1-27.29,8.08c-7.42,0-14.28-1.63-19.12-4.54-2.4-1.44-2.39-1.92-1-1.92,2.79,0,11.17,1.94,16.84,1.94,2.79,0,4.93-.47,5.43-1.87,2.31-6.48-6.65-8.56-16-12.35a64.18,64.18,0,0,0-23.22-4.88,36.92,36.92,0,0,0-9.66,1.2c-13.85,3.78-23.85,6.62-26.7,7.54v36.34c5.7-2.1,12.31-4.11,16.07-4.11,6.9,0,34.81,8.9,50.61,8.9a25.46,25.46,0,0,0,5.84-.57c13.41-3.24,36.7-22.2,43-28.68C193,171,191.8,164.78,185.76,164.78Z"/></g></g></svg>